<svg width="163" height="163" xmlns="http://www.w3.org/2000/svg" xmlns:xlink="http://www.w3.org/1999/xlink" overflow="hidden"><defs><clipPath id="clip0"><rect x="2544" y="1099" width="163" height="163"/></clipPath></defs><g clip-path="url(#clip0)" transform="translate(-2544 -1099)"><path d="M2625.59 1099C2580.47 1099 2544 1135.51 2544 1180.49 2544 1225.48 2580.47 1261.99 2625.59 1261.99 2670.53 1261.99 2707 1225.48 2707 1180.49 2707 1135.51 2670.53 1099 2625.59 1099Z" fill="#FBF4D9" fill-rule="evenodd"/><path d="M2656.27 1142.45C2660.88 1142.45 2664.64 1146.24 2664.64 1150.9 2664.63 1155.57 2660.88 1159.36 2656.27 1159.36 2651.66 1159.36 2647.91 1155.57 2647.91 1150.9 2647.91 1146.24 2651.66 1142.45 2656.27 1142.45ZM2627 1150.9C2643.14 1150.9 2656.27 1164.19 2656.27 1180.5 2656.27 1196.81 2643.14 1210.1 2627 1210.1 2610.87 1210.1 2597.73 1196.81 2597.73 1180.5 2597.73 1164.19 2610.85 1150.9 2627 1150.9ZM2593.54 1134.01C2586.63 1134.01 2581 1139.68 2581 1146.69L2581 1214.31C2581 1221.32 2586.63 1226.99 2593.54 1226.99L2660.45 1226.99C2667.37 1226.99 2673 1221.32 2673 1214.31L2673 1146.69C2673 1139.69 2667.37 1134.01 2660.45 1134.01Z" fill="#FE94BD" fill-rule="evenodd"/><path d="M2627 1159C2615.43 1159 2606.01 1168.42 2606.01 1180 2606.01 1191.58 2615.43 1201 2627 1201 2638.57 1201 2647.99 1191.58 2647.99 1180 2647.99 1168.42 2638.57 1159 2627 1159Z" fill="#FE94BD" fill-rule="evenodd"/></g></svg>