<svg width="163" height="162" xmlns="http://www.w3.org/2000/svg" xmlns:xlink="http://www.w3.org/1999/xlink" overflow="hidden"><defs><clipPath id="clip0"><rect x="2812" y="1099" width="163" height="162"/></clipPath></defs><g clip-path="url(#clip0)" transform="translate(-2812 -1099)"><path d="M2893.59 1099C2848.47 1099 2812 1135.29 2812 1179.99 2812 1224.7 2848.47 1260.99 2893.59 1260.99 2938.53 1260.99 2975 1224.7 2975 1179.99 2975 1135.29 2938.53 1099 2893.59 1099Z" fill="#FBF4D9" fill-rule="evenodd"/><path d="M2869.5 1149C2868.12 1149 2867 1150.12 2867 1151.5 2867 1152.88 2868.12 1154 2869.5 1154 2870.87 1154 2872 1152.88 2872 1151.5 2872 1150.12 2870.87 1149 2869.5 1149Z" fill="#FE94BD" fill-rule="evenodd"/><path d="M2868.98 1143.84C2873.48 1143.84 2877.15 1147.43 2877.15 1151.84 2877.15 1156.25 2873.48 1159.83 2868.98 1159.83 2864.48 1159.83 2860.81 1156.25 2860.81 1151.84 2860.81 1147.43 2864.48 1143.84 2868.98 1143.84ZM2874.42 1165.17C2875.94 1165.17 2877.15 1166.36 2877.15 1167.84L2877.15 1210.49C2877.15 1211.97 2875.94 1213.16 2874.42 1213.16L2863.53 1213.16C2862.02 1213.16 2860.81 1211.97 2860.81 1210.49L2860.81 1167.84C2860.81 1166.36 2862.02 1165.17 2863.53 1165.17ZM2908.44 1165.08C2909.49 1165.08 2910.55 1165.17 2911.59 1165.33 2920.45 1166.74 2926.2 1173.84 2926.2 1181.8L2926.2 1210.49C2926.2 1211.97 2924.98 1213.16 2923.47 1213.16L2912.57 1213.16C2911.06 1213.16 2909.85 1211.97 2909.85 1210.49L2909.85 1186.5C2909.85 1183.56 2907.4 1181.17 2904.4 1181.17 2901.39 1181.17 2898.95 1183.56 2898.95 1186.5L2898.95 1210.49C2898.95 1211.97 2897.73 1213.16 2896.22 1213.16L2885.33 1213.16C2883.81 1213.16 2882.6 1211.97 2882.6 1210.49L2882.6 1167.84C2882.6 1166.36 2883.81 1165.17 2885.33 1165.17L2896.22 1165.17C2897.62 1165.17 2898.77 1166.2 2898.92 1167.53 2901.73 1165.94 2905.05 1165.08 2908.44 1165.08ZM2860.81 1133C2853.29 1133 2847 1139.16 2847 1146.51L2847 1210.49C2847 1217.84 2853.29 1224 2860.81 1224L2926.2 1224C2933.7 1224 2940 1217.84 2940 1210.49L2940 1146.51C2940 1139.16 2933.7 1133 2926.2 1133Z" fill="#FE94BD" fill-rule="evenodd"/><path d="M2908.59 1170C2905.1 1170 2901.69 1171.27 2899.48 1173.45 2898.38 1174.53 2897.54 1175.54 2896.3 1175.54 2895.96 1175.54 2895.6 1175.46 2895.2 1175.3 2894.17 1174.88 2893.5 1173.89 2893.5 1172.79L2893.5 1170.08 2888 1170.08 2888 1208 2893.5 1208 2893.5 1186.34C2893.5 1180.36 2898.44 1175.5 2904.49 1175.5 2910.56 1175.5 2915.49 1180.36 2915.49 1186.34L2915.49 1208 2920.99 1208 2920.99 1181.56C2920.99 1176.14 2917.2 1171.19 2910.88 1170.18 2910.12 1170.06 2909.35 1170 2908.59 1170Z" fill="#FE94BD" fill-rule="evenodd"/><path d="M2867 1170 2867 1208 2872 1208 2872 1170Z" fill="#FE94BD" fill-rule="evenodd"/></g></svg>