<svg width="336" height="246" xmlns="http://www.w3.org/2000/svg" xmlns:xlink="http://www.w3.org/1999/xlink" overflow="hidden"><defs><clipPath id="clip0"><rect x="630" y="552" width="336" height="246"/></clipPath></defs><g clip-path="url(#clip0)" transform="translate(-630 -552)"><path d="M324.437 87.5092C301.914 40.9146 262.488 14.9849 222.438 7.25617 212.738 4.6238 202.954 3.00023 193.17 2.32811 176.226-0.751928 158.866-0.304263 141.838 0.983866 115.151 2.38422 88.5894 8.87973 64.6089 25.2339 53.5774 32.5137 43.0445 41.5867 33.7599 52.4517 30.304 55.3072 26.8072 58.6678 23.3105 62.6445 4.07599 85.7173-8.70528 131.248 7.15662 171.403 29.2632 217.047 58.4893 226.399 91.379 237.488 137.966 249.696 181.513 245.328 214.569 236.423 248.916 228.807 282.722 213.63 312.656 189.492 339.009 165.41 343.214 121.448 324.437 87.5092Z" fill="#FBF4D9" fill-rule="evenodd" transform="matrix(-1 0 0 1 966 552)"/><path d="M835.155 736.278C828.635 736.29 822.103 736.361 815.582 736.42 815.296 691.433 813.532 646.127 821.185 601.612 823.64 587.325 805.2 578.139 796.904 591.482 783.899 612.428 767.842 631.19 753.717 651.37 743.931 665.35 766.96 678.492 776.651 664.653 780.955 658.513 785.436 652.503 789.954 646.529 788.309 676.496 788.869 706.57 789.013 736.668 778.189 736.715 771.645 736.656 760.834 736.278 743.693 735.676 743.752 761.995 760.834 762.586 787.01 763.495 808.955 762.633 835.143 762.586 852.284 762.574 852.284 736.255 835.155 736.278Z" fill="#ABE2D8" fill-rule="evenodd"/></g></svg>