<svg width="1491" height="1569" xmlns="http://www.w3.org/2000/svg" xmlns:xlink="http://www.w3.org/1999/xlink" overflow="hidden"><defs><clipPath id="clip0"><rect x="103" y="194" width="1491" height="1569"/></clipPath></defs><g clip-path="url(#clip0)" transform="translate(-103 -194)"><path d="M135.663 1569 1491 1569 1491 13.7502C1264.27-3.87028 1036.24-11.3801 811.845 33.9707 736.251 49.2436 656.622 73.7605 602.607 147.275 537.895 235.341 527.729 387.642 579.754 490.078 508.114 485.673 435.334 484.157 365.87 508.276 296.381 532.396 229.626 585.221 192.279 668.484 154.907 751.747 153.235 867.724 199.552 942.214 220.282 975.54 249.559 1000.35 262.512 1040.28 145.458 1029.56 29.3588 1148.6 4.72701 1304.62-5.67772 1370.45 0.13472 1444.5 31.8009 1496.24 57.7333 1538.6 95.1588 1559 135.663 1569Z" fill="#FBF4D9" fill-rule="evenodd" transform="matrix(-1 0 0 1 1594 194)"/></g></svg>