<svg width="1515" height="1670" xmlns="http://www.w3.org/2000/svg" xmlns:xlink="http://www.w3.org/1999/xlink" overflow="hidden"><defs><clipPath id="clip0"><rect x="103" y="95" width="1515" height="1670"/></clipPath></defs><g clip-path="url(#clip0)" transform="translate(-103 -95)"><path d="M135.663 1569 1491 1569 1491 13.7502C1264.27-3.87028 1036.24-11.3801 811.845 33.9707 736.251 49.2436 656.622 73.7605 602.607 147.275 537.895 235.341 527.729 387.642 579.754 490.078 508.114 485.673 435.334 484.157 365.87 508.276 296.381 532.396 229.626 585.221 192.279 668.484 154.907 751.747 153.235 867.724 199.552 942.214 220.282 975.54 249.559 1000.35 262.512 1040.28 145.458 1029.56 29.3588 1148.6 4.72701 1304.62-5.67772 1370.45 0.13472 1444.5 31.8009 1496.24 57.7333 1538.6 95.1588 1559 135.663 1569Z" fill="#FBF4D9" fill-rule="evenodd" transform="matrix(-1 0 0 1 1594 194)"/><path d="M245 1083.15 245 419.847C245 390.679 268.625 367 297.792 367L1403.21 367C1432.35 367 1456 390.65 1456 419.847L1456 1083.15C1456 1112.32 1432.38 1136 1403.21 1136L297.792 1136C268.625 1136 245 1112.32 245 1083.15Z" fill="#043F6D" fill-rule="evenodd"/><path d="M271 1080.57 271 422.433C271 403.966 285.969 389 304.441 389L1397.56 389C1416.03 389 1431 403.966 1431 422.433L1431 1080.57C1431 1099.03 1416.03 1114 1397.56 1114L304.441 1114C285.969 1114 271 1099.03 271 1080.57Z" fill="#50A8A9" fill-rule="evenodd"/><path d="M1467.81 1168 229.194 1168C224.115 1168 220 1163.87 220 1158.78L220 1143.22C220 1138.13 224.115 1134 229.194 1134L1467.81 1134C1472.89 1134 1477 1138.13 1477 1143.22L1477 1158.78C1477 1163.87 1472.89 1168 1467.81 1168Z" fill="#043F6D" fill-rule="evenodd"/><path d="M206.636 56.4344C192.29 26.3857 167.18 9.66374 141.672 4.67948 135.494 2.98187 129.263 1.93484 123.031 1.50139 112.239-0.484916 101.182-0.196218 90.3371 0.634492 73.3402 1.53758 56.423 5.72651 41.1497 16.2732 34.1237 20.968 27.4152 26.8191 21.5019 33.8259 19.3007 35.6675 17.0736 37.8347 14.8465 40.3992 2.59602 55.2788-5.54443 84.6416 4.55809 110.538 18.6379 139.973 37.2521 146.004 58.1997 153.155 87.8709 161.028 115.607 158.211 136.66 152.469 158.536 147.557 180.067 137.769 199.132 122.203 215.916 106.673 218.594 78.3216 206.636 56.4344Z" fill="#FBF09D" fill-rule="evenodd" transform="matrix(-1 0 0 1 327 125)"/><path d="M52.5776 1.17457C45.3527-0.624943 37.1377-0.444671 29.646 2.32591 10.4868 4.19753-6.61196 19.1665 2.53935 46.0102 2.80681 46.5502 3.10107 47.0534 3.36852 47.5574 3.52935 48.0613 3.63658 48.6366 3.82362 49.1405 8.26554 60.4752 17.7647 65.8369 26.7558 67.852 42.0348 71.2347 59.6416 67.6004 69.9974 50.8319 84.1791 28.0183 71.1482 6.60837 52.5776 1.17457Z" fill="#FBF09D" fill-rule="evenodd" transform="matrix(-1 0 0 1 403 94.9999)"/><path d="M195.096 46.1837C181.761-7.35767 123.468-2.61484 90.1463 3.79249 89.5633 3.90131 89.0062 4.00932 88.4232 4.11814 69.3894 6.07282 50.3828 10.8882 31.9852 20.9881 18.2005 28.2281 4.41588 41.4417 0.624938 61.9679-2.71515 84.0869 7.73 106.242 22.3892 115.184 55.1545 135.999 101.758 129.918 136.245 118.949 161.403 110.695 202.624 91.0375 195.096 46.1837Z" fill="#FBF09D" fill-rule="evenodd" transform="matrix(-1 0 0 1 1564 1238)"/><path d="M94.1934 17.1177C75.9589-1.75194 50.5579-3.19199 28.9792 4.00983 20.1406 7.50249 11.143 13.6243 6.55084 24.9674 5.83472 26.9487 5.33013 28.9291 4.9053 30.9096-0.535908 40.7045-2.20804 52.8037 3.81694 66.3077 17.4067 90.6505 45.4884 93.7832 66.1915 89.2466 80.0465 86.7257 93.8218 76.6783 101.758 60.8699 108.632 46.2137 103.855 27.1283 94.1934 17.1177Z" fill="#FBF09D" fill-rule="evenodd" transform="matrix(-1 0 0 1 1618 1373)"/><path d="M697.564 383.433C675.648 377.205 653.586 371.425 631.669 365.197 676.445 335.248 724.712 298.873 733.402 245.773 738.567 214.226 718.611 176.683 683.094 178.179 653.049 179.432 628.245 208.118 612.875 231.197 599.92 250.664 630.901 269.353 643.769 250.013 653.286 235.724 662.487 222.423 679.807 217.922 701.007 212.421 705.802 245.143 689.294 266.885 668.956 293.708 623.36 332.551 583.021 354.234 572.371 359.965 568.625 375.853 578.072 385.083 588.915 395.689 654.972 408.927 687.629 418.207 710.065 424.566 720 389.793 697.564 383.433Z" stroke="#FE94BD" stroke-width="6.875" stroke-linejoin="round" stroke-miterlimit="10" fill="#FE94BD" fill-rule="evenodd"/><path d="M1387.92 1529.75C1373.45 1533.68 1371.05 1592.62 1371.05 1592.62 1371.05 1592.62 1320.37 1575.41 1311.55 1586.69 1302.74 1597.99 1304.69 1616.12 1317.61 1621.52 1330.52 1626.91 1364.72 1631.01 1364.72 1631.01 1364.72 1631.01 1349.67 1675.58 1356.01 1688.07 1362.36 1700.55 1384.34 1700.31 1390.83 1691.35 1397.3 1682.39 1401.49 1638.42 1401.49 1638.42 1401.49 1638.42 1446.44 1651.68 1454.61 1648.19 1462.78 1644.69 1471 1613.22 1462.3 1610.06 1453.59 1606.9 1409.44 1601.28 1409.44 1601.28 1409.44 1601.28 1426.2 1550.52 1421.11 1541.08 1416.01 1531.68 1397.8 1527.06 1387.92 1529.75Z" stroke="#FE94BD" stroke-width="6.875" stroke-linejoin="round" stroke-miterlimit="10" fill="#FE94BD" fill-rule="evenodd"/><path d="M1224.85 1018.63C1221.55 1018.47 1217.25 1018.29 1217.25 1018.37 1214.53 1018.21 1211.66 1018.16 1208.8 1018.13 1205.93 1016.91 1199.2 1015.95 1191.6 1016 1183.14 1016.18 1174.69 1016.37 1166.09 1016.57 1148.03 1017.01 1133.84 1017.43 1120.65 1017.79 1109.33 1017.69 1098.01 1017.64 1086.68 1017.64 1078.37 1017.56 1069.48 1017.87 1063.61 1018.68 1063.18 1018.68 1062.6 1018.68 1062.17 1018.68 1043.54 1019.59 1043.11 1024.6 1061.89 1025.51 1074.21 1025.71 1085.11 1025.61 1096.14 1025.4 1102.88 1025.38 1110.04 1025.33 1117.21 1025.3 1119.07 1025.33 1120.94 1025.33 1122.8 1025.35 1125.24 1025.74 1128.53 1026 1132.26 1026 1151.9 1025.87 1171.53 1025.74 1191.17 1025.74 1200.2 1025.79 1209.94 1026 1216.68 1025.43 1223.85 1025.4 1230.73 1025.2 1235.17 1024.05 1243.48 1022.18 1237.46 1019.2 1224.85 1018.63Z" fill="#FCFCFC" fill-rule="evenodd"/><path d="M350.183 43.8984C350.183 43.8984 352.661 38.9446 349.199 34.277 343.64 26.7832 231.158-41.4559 143.422 38.4365 106.066 72.4765 85.2909 157.164 80.8121 207.461 76.3333 257.791 81.193 308.533 77.731 358.926 76.3333 379.281 73.2516 400.428 61.562 417.194 48.2208 436.341 25.3809 447.265 12.0717 466.444-3.20772 488.45-3.20772 518.742 7.71953 543.224 18.6468 567.707 39.1041 586.886 61.7844 601.143 64.9926 603.175 68.5505 605.493 69.44 609.177 70.1386 612.067 68.9952 615.051 68.1057 617.909 62.102 637.406 68.8362 659.22 81.6064 675.161 94.3762 691.07 112.419 701.898 131.001 710.408 151.141 719.648 172.741 726.602 194.913 726.951 217.086 727.3 239.957 720.442 262.51 704.216 288.431 727.555 323.469 742.257 358.157 738.382 392.813 734.477 425.69 709.519 433.505 675.51 460.473 675.764 487.093 660.872 501.038 637.787 514.951 614.702 515.682 584.219 502.88 560.499 491.826 540.017 471.21 523.029 470.479 499.786 470.035 485.623 477.373 472.572 482.201 459.236 493.414 428.435 491.413 393.062 475.562 362.356 454.787 323.68 455.804 277.288 459.425 233.499 463.046 189.743 459.33 153.448 446.147 111.565 437.031 82.606 411.459 59.6165 382.044 47.7722 368.417 42.247 356.314 42.4374 350.183 43.8984Z" fill="#3F2212" fill-rule="evenodd" transform="matrix(-1 0 0 1 643 588)"/><path d="M61.0284 191.063C58.0238 182.639 53.4693 174.848 47.3972 168.291 40.914 161.324 32.8809 156.099 25.575 150.081 18.1431 143.968 11.6281 136.906 9.06644 127.373 6.4417 117.618 8.18076 107.61 13.2093 98.9643 22.2548 83.4773 38.0991 72.8043 44.488 55.5756 51.414 36.8261 46.5433 14.8152 32.5016 0.721572 30.3192-1.46365 27.1568 1.79826 29.149 4.07847 40.629 17.3803 44.0452 37.3328 37.3088 53.6116 30.5406 69.9854 14.8854 80.3416 6.12547 95.4806-3.39406 111.918-1.71804 131.997 10.458 146.565 21.8119 160.152 39.0166 167.215 48.3777 182.702 58.5297 199.519 60.1109 221.53 51.9199 239.456 49.9907 243.636 56.0946 247.373 58.1817 243.13 66.2148 226.946 67.1318 208.07 61.0284 191.063Z" fill="#2B1200" fill-rule="evenodd" transform="matrix(-1 0 0 1 229 960)"/><path d="M36.4783 143.015C25.4727 137.774 14.7847 129.357 9.80515 117.923 3.84286 104.203 10.1542 91.3713 16.0532 78.8893 27.6612 54.4012 33.8137 22.0683 12.2477 0.915228 9.39347-1.87971 5.20701 2.34463 7.87103 5.29869 24.6482 23.6882 20.9691 50.5578 11.5183 71.4571 6.88776 81.6843 0.988673 91.689 0.100488 103.155-0.628861 112.524 2.66942 121.83 8.15628 129.294 14.7847 138.314 23.7282 144.635 34.0039 148.795 37.3346 150.129 39.6814 144.571 36.4783 143.015Z" fill="#2B1200" fill-rule="evenodd" transform="matrix(-1 0 0 1 275 984)"/><path d="M13.2094 2.56751C12.8722-0.776275 8.1146-0.934326 8.02259 2.56751 7.74654 12.7569 10.9383 22.6313 10.0485 32.8213 9.25068 41.8119 5.50628 49.9827 0.50347 57.3014-1.49159 60.2355 2.92828 63.6427 5.29141 61.1188 11.9207 54.0522 15.5422 44.7772 16.7086 35.1238 18.0591 24.0511 14.345 13.4198 13.2094 2.56751Z" fill="#2B1200" fill-rule="evenodd" transform="matrix(-1 0 0 1 314 1001)"/><path d="M86.9176 2.59539C86.7598-0.913142 81.9059-0.817479 81.5907 2.59539 80.2983 16.598 76.957 30.6962 66.65 40.8071 57.8878 49.3874 46.3196 54.2993 35.6658 59.945 25.2326 65.4951 15.0835 72.2252 8.46421 82.3361 2.25458 91.8094-0.519214 103.611 0.0794661 114.902 0.773183 127.788 5.65874 140.1 15.0518 149.031 18.1408 151.997 22.5222 147.5 19.685 144.311 5.12288 127.948 3.2318 100.517 17.416 83.2611 32.4512 64.9847 58.6127 61.4762 74.0259 43.4868 83.6397 32.291 87.6425 17.204 86.9176 2.59539Z" fill="#2B1200" fill-rule="evenodd" transform="matrix(-1 0 0 1 621 971)"/><path d="M27.9099 1.62242C26.8522-1.18444 22.3965-0.0806106 23.262 2.88371 30.4102 27.3872 15.056 49.8098 0.566792 68.2901-1.64468 71.1281 3.16323 74.6922 5.56745 72.1062 22.9731 53.3416 37.5907 27.3872 27.9099 1.62242Z" fill="#2B1200" fill-rule="evenodd" transform="matrix(-1 0 0 1 527 989)"/><path d="M17.6071 1.55383C16.9425-1.17578 12.9553-0.00108168 13.4615 2.69662 16.7527 20.7871 6.84878 36.5926 0.203749 52.5884-1.03061 55.6036 3.6842 57.3175 5.29802 54.7464 14.8856 39.2584 22.1634 19.8985 17.6071 1.55383Z" fill="#2B1200" fill-rule="evenodd" transform="matrix(-1 0 0 1 493 1001)"/><path d="M421.951 15.88C425.036 109.797 439.857 203.334 466 293.638 442.974 308.06 418.739 310.564 395.235 311.832 364.385 313.48 333.439 313.385 302.588 311.547 280.866 310.247 258.158 307.743 240.092 295.635 223.809 237.63 213.631 177.691 207.27 117.404 201.132 115.027 196.457 114.456 191.782 113.918 189.873 170.782 187.965 227.614 186.089 284.477 185.961 287.869 185.802 291.451 183.926 294.303 180.618 299.311 173.653 299.914 167.642 300.009 111.761 300.864 55.8167 299.819 0 296.902 0.0953531 195.537 18.0331 94.2024 48.979 0 171.744 23.012 297.563 29.8263 421.951 15.88Z" fill="#D3487E" fill-rule="evenodd" transform="matrix(-1 0 0 1 692 1449)"/><path d="M12.4851 3.98851C7.31538 24.2397 3.21903 44.7464 0.260314 65.4128 0 67.2623-0.260314 69.2715 0.520074 70.9616 1.26834 72.6203 2.82856 73.6725 4.42202 74.5338 10.1766 77.6909 16.777 79.2539 23.3773 78.9669 25.1657 78.8713 27.0516 78.6479 28.5797 77.5952 31.0505 75.905 31.8962 72.6203 32.5138 69.6541 36.6428 49.5941 39.7644 29.3744 41.91 9.02754 42.0075 8.10256 42.1055 7.11399 41.7477 6.28466 41.3899 5.45533 40.6422 4.88142 39.8945 4.37111 32.7741-0.412492 23.8326-2.26246 12.4851 3.98851Z" fill="#FCFCFC" fill-rule="evenodd" transform="matrix(-1 0 0 1 907 901)"/><path d="M464.216 14.0706C446.652 7.1782 425.148 9.27451 403.041 11.6571 384.078 13.7215 366.037 21.1222 349.203 30.1109 309.562 51.265 275.385 81.1534 238.349 106.532 231.362 111.328 223.834 116.092 215.385 116.696 207.603 117.268 199.535 115.14 192.96 110.947 148.206 82.2018 114.442 42.4987 71.943 0 57.1734 27.3478 25.7279 44.1501 0 52.8211 22.0752 99.3539 49.1374 153.636 80.5828 192.005 98.91 214.334 118.73 236.441 144.331 249.814 190.674 274.049 248.514 268.109 309.181 256.198 291.108 309.209 267.794 368.383 260.202 423.873 259.504 428.955 258.9 434.354 260.965 439.024 263.76 445.344 270.621 448.679 276.973 451.379 377.599 494.005 492.232 504.264 597.938 476.535 610.898 473.137 624.27 468.849 640.342 455.826 639.58 425.016 639.77 397.129 635.832 364.127 667.976 367.462 693.609 364.826 706.314 351.137 733.599 321.756 722.036 260.739 718.765 237.013 712.412 190.576 697.42 151.571 672.9 101.609 652.253 59.5235 610.136 20.8044 557.758 20.8044 523.708 32.5888 500.807 28.4595 464.216 14.0706Z" fill="#F2BA52" fill-rule="evenodd" transform="matrix(-1 0 0 1 911 1019)"/><path d="M291.131 156.928C276.719 125.032 275.449 98.3986 289.639 67.4918 239.069 107.298 168.31 112.911 113.36 86.7567 68.3147 66.1841 32.5067 34.9577 0 0 17.8407 35.4045 38.189 71.415 60.7911 99.1324 79.1077 121.555 98.9163 143.755 124.503 157.183 170.818 181.519 228.626 175.555 289.258 163.594 289.035 164.296 288.782 164.997 288.528 165.699 291.131 162.605 293.258 159.065 291.131 156.928Z" fill="#BFBFFF" fill-rule="evenodd" transform="matrix(-1 0 0 1 891 1112)"/><path d="M0 0C36.4994 77.3897 113.941 130.229 197 148 196.46 138.814 195.699 129.437 194.588 119.617 118.098 106.85 45.5126 59.7451 0 0Z" fill="#BFBFFF" fill-rule="evenodd" transform="matrix(-1 0 0 1 469 1266)"/><path d="M441.315 246.367C486.831 306.267 559.473 353.496 636.054 366.263 635.958 365.533 635.927 364.834 635.831 364.104 667.976 367.438 693.609 364.802 706.313 351.114 733.598 321.735 722.036 260.723 718.765 236.997 712.412 190.563 697.42 151.562 672.899 101.602 652.253 59.5197 610.135 20.8031 557.758 20.8031 523.74 32.5867 500.807 28.4577 464.216 14.0697 446.651 7.17774 425.148 9.2739 403.04 11.6564 384.078 13.7206 366.037 21.1208 349.202 30.1089 309.562 51.2617 275.385 81.1482 238.349 106.525 231.361 111.321 223.833 116.085 215.385 116.688 207.603 117.26 199.535 115.132 192.96 110.94 148.206 82.1965 114.442 42.496 71.9429 0 57.1733 27.346 25.7279 44.1473 0 52.8177 6.19364 65.8715 12.8001 79.5602 19.7567 93.3127 52.3134 128.122 88.1107 159.216 133.182 179.702 188.164 205.745 258.964 200.124 309.562 160.518 310.991 157.437 312.516 154.325 314.231 151.117 312.484 154.293 310.959 157.406 309.562 160.518 314.486 156.643 319.25 152.483 323.76 147.941 319.25 152.451 314.486 156.643 309.562 160.518 295.364 191.326 296.635 217.846 311.055 249.575 313.183 251.703 311.055 255.228 308.45 258.277 290.473 310.746 267.699 369.09 260.171 423.877 259.472 428.959 258.868 434.358 260.933 439.027 263.728 445.347 270.589 448.682 276.942 451.382 377.567 494.004 492.199 504.263 597.907 476.536 610.866 473.138 624.238 468.85 640.31 455.829 639.802 434.962 639.675 415.429 638.436 394.753 555.344 376.935 477.842 323.958 441.315 246.367Z" fill="#BFBFFF" fill-rule="evenodd" transform="matrix(-1 0 0 1 911 1019)"/><path d="M120.467 83.2118C121.356 73.7912 122.246 64.4013 123.135 54.9807 123.803 47.9703 124.47 40.8648 123.549 33.8545 122.627 26.876 119.991 19.8656 114.971 15.171 109.284 9.80985 101.088 7.97037 93.495 9.08065 85.9017 10.1909 78.881 13.9656 72.6861 18.6602 65.8873 10.0639 57.5002 4.63951 48.4143 1.59461 45.5867 0.64271 42.6324-0.0870281 39.6775 0.00810821 33.2283 0.167029 27.3511 4.13194 22.9671 9.04876 17.598 15.0121 13.9445 22.403 10.5454 29.7625 6.38319 38.7713 2.47589 48.0017 0.823673 57.8353-0.859932 67.6689-0.129342 78.2318 4.57241 86.9551 7.36814 92.1573 11.4665 96.5028 15.6601 100.563 26.9382 111.475 39.4232 121.086 52.9256 130 73.6072 127.431 93.4631 117.819 108.68 102.974 114.335 97.4228 119.736 90.92 120.467 83.2118Z" fill="#CE9065" fill-rule="evenodd" transform="matrix(-1 0 0 1 960 944)"/><path d="M93.8554 33.8865C92.6169 31.596 90.9342 33.7911 89.7595 34.8412 87.1877 37.0363 86.2352 37.8316 83.7267 39.8993 81.0283 42.1579 73.6299 47.2799 69.8519 48.2981 67.1211 49.2842 63.7559 49.2842 61.6919 48.998 55.2145 47.5347 55.2465 39.8359 56.7387 33.5049 57.7864 28.4148 58.9292 25.7106 61.3106 21.2565 63.3426 17.6936 64.3908 15.9436 67.0578 13.0166 71.7568 8.02194 77.186 4.26767 84.4255 2.10456 86.6479 1.53207 88.0768 1.24582 90.3944 1.21384 91.1884 1.08643 92.2994 1.4681 92.9349 1.08643 93.2837 0.768202 93.0295 0.0683087 92.5536 0.100295 86.8069-0.440754 81.123 1.27726 75.8528 3.53633 74.3606 4.20424 70.6454 6.04966 68.4549 7.76714 64.5812 10.7895 61.4063 14.6712 58.8659 18.934 57.0562 21.9884 55.1194 26.4105 53.9127 31.087 51.8807 29.1461 49.2775 27.8418 46.928 26.3785 42.7368 23.8652 38.4186 21.4793 33.9732 19.5385 33.3702 19.3156 32.7985 19.0614 32.1954 18.8386 32.0683 18.6797 31.8779 18.5523 31.6556 18.4889 29.0519 17.5022 25.9722 15.7527 22.5113 15.5619 17.8755 15.0529 11.3035 17.248 8.95399 19.7613 8.19191 20.652 8.95399 22.1792 10.0649 22.1472 11.1445 21.9564 11.2716 21.6381 12.224 21.2885 13.3355 20.5886 17.114 19.7293 17.8755 19.6978 19.5587 19.443 25.4006 20.111 25.0831 20.0795 27.0199 20.1749 28.1947 20.3338 29.4965 20.5246 37.7836 23.6424 45.4352 28.3194 53.4048 33.4409 53.3415 33.4095 53.3415 33.4095 53.4048 33.4729 51.8493 41.3311 52.7698 49.2528 60.3901 51.7341 65.0258 52.5934 69.0899 51.8929 72.9316 50.3023 73.0906 50.716 73.0268 50.4297 73.2491 51.257 73.5033 52.9111 73.8521 53.8658 73.1539 56.1883 72.4237 57.9063 69.979 60.9601 67.8832 62.1691 67.4705 62.5187 66.8988 62.5827 66.2638 62.7416 66.0735 62.4233 65.8512 62.1056 65.5975 61.7874 60.6124 55.838 53.1506 53.3247 46.3877 50.3663 38.7994 47.4073 31.1791 44.1941 23.1462 42.8263 18.5424 42.1579 13.8434 42.1898 9.30284 43.176 7.74732 43.5262 6.19126 44.0033 4.76284 44.7352 3.52426 45.3396 1.93683 47.0891 1.33323 47.6936 0.889179 48.2346 0.0638218 48.6483 0 49.4436 0 50.2709 0.984371 50.716 1.52415 50.1115 4.25443 47.6302 7.17563 46.0075 11.621 45.4351 11.6524 45.4351 11.621 45.4351 11.5891 45.4351 14.0976 45.0534 17.9393 44.8306 21.3046 45.1803 29.6555 46.0395 41.4983 50.9708 49.6263 54.4063 55.088 56.7927 60.1039 59.4969 63.4378 63.6008 65.3752 66.4958 66.1367 69.5182 64.327 71.9676 61.0883 75.8492 57.5008 77.0582 53.6271 78.3626 48.6739 79.8578 45.1177 80.2394 39.8789 80.3029 37.7517 80.3663 35.5926 80.3029 33.4654 80.3029 32.5762 80.1755 31.4014 80.5257 31.6556 81.7026 31.7827 82.1797 32.2273 82.4345 32.6081 82.6573 32.6719 82.6888 32.7666 82.7528 32.8304 82.7842 32.4177 82.5934 33.878 83.3572 34.1636 83.5481 37.2752 85.3615 39.3391 86.8247 41.5621 88.893 44.2291 91.3423 46.3877 94.2373 47.4991 97.5139 47.8485 98.5006 48.1341 99.3594 48.166 100.123 48.2293 100.664 48.1979 101.236 48.5787 101.618 49.3408 102.445 50.8011 101.841 50.7697 100.664 50.0709 92.6147 44.2291 86.2522 37.4975 82.5934 37.8788 82.5934 38.2596 82.6254 38.609 82.6254 44.8321 82.8796 51.0872 82.3706 57.0243 80.2709 64.327 77.5667 70.7411 72.0315 67.1849 64.4916 68.7085 64.0459 70.0742 63.1232 71.2803 61.9782 72.8683 60.483 74.2967 58.765 75.2492 56.7288 76.3607 54.5971 76.2974 50.9388 75.4082 49.1573 78.5198 47.5347 81.5362 45.4351 84.584 43.24 87.2509 41.2037 89.8233 39.104 92.2994 36.845 93.0295 36.0816 94.4585 35.2229 93.8554 33.8865Z" fill="#915744" fill-rule="evenodd" transform="matrix(-1 0 0 1 953 952)"/><path d="M106.999 2.37377C107.063 0.371071 104.321-0.836941 102.919 0.688513 86.7562 20.6207 71.6776 41.4424 58.7033 63.5989 51.9451 74.6617 44.5174 85.4065 39.0979 97.232 36.8024 102.318 35.081 107.691 34.6346 113.254 34.2844 118.912 35.081 124.57 36.5157 130.038 38.1416 136.141 40.3729 142.086 43.5291 147.554 45.8245 151.464 49.8409 157.568 51.0844 158.998 51.7855 159.761 52.455 160.588 53.1561 161.35 53.2837 161.573 53.4434 161.795 53.539 162.018 53.571 164.243 47.8647 178.866 45.4417 185.955 39.4166 203.184 33.1684 220.351 27.0157 237.517 22.9674 248.834 19.6521 260.373 16.2407 271.881 12.7023 283.865 8.97267 295.818 6.0397 307.993 2.82001 321.026 0.174316 334.314 0.110237 347.793 0.110237 350.495-0.208528 353.261 0.237852 355.899 0.397506 356.344 0.779807 356.726 1.22619 356.884 4.60499 357.711 3.71277 353.928 4.19065 351.639 4.66907 346.013 5.11545 339.241 5.65686 335.586 7.41034 321.63 12.6067 302.144 17.4843 286.472 21.7879 272.644 25.6131 258.688 30.2995 244.987 39.1299 220.065 48.5337 195.364 57.0774 170.347 57.9702 167.136 59.9783 163.798 58.99 160.396 56.631 155.406 53.029 151.082 50.5425 146.123 45.0273 136.078 41.8397 126.033 41.7756 114.906 41.6165 109.948 44.9953 101.269 46.1748 98.9167 50.5425 89.1892 56.1847 80.0977 61.5722 70.9423 67.7569 60.3887 73.8134 49.7392 80.4765 39.4711 88.1589 27.9636 96.4794 16.8694 104.863 5.83855 104.067 6.72857 105.82 4.75784 106.266 4.09045 106.744 3.6132 106.999 3.0092 106.999 2.37377Z" fill="#043F6D" fill-rule="evenodd" transform="matrix(-1 0 0 1 653 1106)"/><path d="M121.523 50.5533C106.939 33.5075 92.1313 16.272 73.6854 3.40055 70.5579 1.21848 66.7285-0.900525 63.1542 0.396102 60.2822 1.43944 58.5588 4.47568 58.2713 7.48012 57.9842 10.4846 58.9095 13.4572 59.963 16.3032 62.2284 22.4388 65.133 28.2892 69.058 34.9938 58.9416 28.5737 48.2826 23.0078 37.2724 18.3274 33.5703 16.7462 29.6453 15.2599 25.624 15.4178 21.5071 15.6075 17.1352 18.0746 16.2736 22.0906 15.2842 26.7398 19.1777 30.8825 22.8793 33.95 31.9427 41.477 41.7721 48.1498 50.6762 53.7157 39.666 48.2764 28.6238 42.8054 17.0075 38.915 12.9863 37.5553 8.23166 36.4802 4.75297 38.8837 1.27427 41.2555 0.5719 46.3153 2.13593 50.237 3.66788 54.1269 6.9226 57.0995 10.2099 59.7558 20.3584 67.9786 31.7198 74.7463 44.1657 81.7036 33.3153 75.5999 20.9331 72.1848 8.48662 71.8685 6.22077 71.8049 3.73148 71.9315 1.9761 73.3548-0.0657794 75.0626-0.449039 78.1619 0.476221 80.6603 1.40202 83.1587 3.34877 85.1193 5.35911 86.8589 12.061 92.6457 20.0393 96.8207 28.0177 100.774 40.4635 106.94 53.0693 112.791 65.8027 118.262 72.8558 121.298 80.5465 124.271 88.0144 122.437 94.2694 120.887 99.2159 116.207 103.429 111.368 115.46 97.358 124.172 79.4898 121.523 50.5533Z" fill="#CE9065" fill-rule="evenodd" transform="matrix(-1 0 0 1 546 1144)"/><path d="M0 84.2937C14.0618 100.416 63.0396 162.168 177.691 198.237 198.768 204.864 230.891 207.86 254.222 195.592 277.203 183.484 281.678 165.545 277.711 143.719 272.569 115.392 233.97 91.0803 214.766 81.5218 182.231 65.3351 165.947 55.0751 133.412 38.8884 110.621 27.5451 46.2483-1.32323 42.1848 0.0472389 38.1857 1.38513 32.7894 56.9549 0 84.2937Z" fill="#BFBFFF" fill-rule="evenodd" transform="matrix(-1 0 0 1 470 1183)"/><path d="M10.5766 0.757349C7.14574 19.065 3.71544 37.3414 0.285137 55.649 0.0633037 56.8797-0.159071 58.1427 0.157989 59.3422 0.539434 60.7622 1.65131 61.867 2.73071 62.8454 24.2972 82.6054 58.8546 86.7719 84.5504 72.6937 88.6792 70.4211 92.84 67.4223 94.2375 62.9401 94.8413 60.9515 94.8733 58.8371 94.8733 56.7538 94.9046 37.8465 94.9685 18.9391 94.9999 0 73.402 3.53501 51.3268 4.13476 29.5698 1.76751 22.5188 1.04135 14.2606-0.978422 10.5766 0.757349Z" fill="#CE9065" fill-rule="evenodd" transform="matrix(-1 0 0 1 448 983)"/><path d="M90.9369 22.9813C90.9688 15.3205 90.9688 7.66026 91.0006 0 69.4319 3.58953 47.3876 4.19853 25.6606 1.79477 18.6187 1.02574 10.3719-1.02574 6.69286 0.737351 4.47217 12.8206 2.22015 24.9039 0 37.0199 30.545 38.3335 65.9431 41.1223 90.9369 22.9813Z" fill="#6E4596" fill-rule="evenodd" fill-opacity="0.239216" transform="matrix(-1 0 0 1 444 983)"/><path d="M209.109 100.687C200.93 95.0122 192.401 89.7514 183.998 84.3634 180.338 82.1635 176.488 79.9952 172.478 77.7632 178.588 79.0704 184.826 79.8675 190.905 81.43 194.278 82.195 197.684 83.0241 201.025 83.9488 201.853 84.1401 202.776 84.6502 203.571 84.1401 204.813 83.4707 204.558 81.43 203.19 81.1111 193.515 78.1778 183.617 76.2012 173.751 74.1606 170.505 73.4592 165.635 72.184 163.567 72.184 163.312 72.2161 163.057 72.2796 162.866 72.4388 161.339 71.6103 159.843 70.7491 158.283 69.8885 140.683 60.0367 123.084 50.2805 105.102 41.1937 87.1844 31.3739 68.5982 22.7657 49.9166 14.5395 41.9601 11.2242 33.9082 8.06759 25.7609 5.16632 18.3135 2.96647 8.89274 0.638931 4.53284 0.352064 2.59143 0.256442 2.43205-0.349348 0.936278 0.287954-0.11385 0.893743-0.33667 2.48781 0.55461 3.34896 1.09567 3.92269 1.95496 3.95474 2.65487 4.20956 3.76897 4.56053 4.11919 4.65616 6.12403 5.32551 28.9113 12.3717 52.8127 22.638 76.4593 34.2116 102.429 46.5502 127.889 59.909 153.064 73.8416 167.576 82.0038 176.742 85.9574 190.045 93.4181 195.87 96.7655 201.853 99.89 207.359 103.78 209.173 104.8 211.21 102.026 209.109 100.687Z" fill="#043F6D" fill-rule="evenodd" transform="matrix(-1 0 0 1 429 1184)"/><path d="M278.648 335.86C258.859 361.187 228.555 377.51 199.712 383.905 115.471 402.519 46.8578 353.487 19.7943 320.969-9.08033 286.288-2.63195 253.833 15.4107 226.311 18.047 222.302 21.16 218.579 23.1296 214.219 25.6074 208.779 26.1474 202.701 26.7507 196.751 29.0694 173.715 32.9134 103.111 62.5818 60.5387 84.1823 29.548 119.505 9.31182 156.607 2.56625 193.708-4.17931 232.78 2.5977 266.292 20.2568 348.849 75.3659 348.945 172.22 307.523 246.26 330.394 232.388 347.737 244.733 353.773 252.21 359.808 259.688 362 269.646 362 279.287 362 299.365 352.757 319.251 337.414 332.169 322.103 345.056 296.341 349.065 278.648 335.86Z" fill="#CE9065" fill-rule="evenodd" transform="matrix(-1 0 0 1 559 621)"/><path d="M76 14.0122C63.9617 24.6051 47.4292 28.7013 31.4936 30.5898 20.6504 31.8698 9.61765 30.0777 0 26.3334 5.68878 12.4122 19.5185 2.39518 34.3228 0.411195 49.2207-1.60497 64.5908 3.93144 76 14.0122Z" fill="#FE94BD" fill-rule="evenodd" transform="matrix(-1 0 0 1 443 910)"/><path d="M120.991 17.3335C121.118 21.2697 119.974 25.1426 118.416 28.7304 116.032 34.1272 112.663 39.0793 108.498 43.2698 107.608 44.1586 106.718 45.016 105.764 45.7777 94.2249 35.7777 78.6806 30.2857 63.6134 32.2857 48.6409 34.2538 34.6539 44.1905 28.9004 58.0001 14.0552 52.3809 2.57971 42.2857 0.22743 31.8096-0.916761 26.6352 2.42105 19.5553 6.58519 16.2857 10.7493 13.0474 16.2802 12.0633 21.5572 11.8729 31.5706 11.492 41.5201 13.492 51.5336 13.3968 60.4662 13.3335 69.3988 11.5553 77.6637 8.19044 87.486 4.19043 97.722-2.15905 107.926 0.729782 115.174 2.79362 120.705 9.80959 120.991 17.3335Z" fill-rule="evenodd" transform="matrix(-1 0 0 1 472 878)"/><path d="M43.9348 15.4666C43.9348 14.4716 43.6821 9.4969 41.4999 6.82331 38.5579 2.59464 31.1244-1.19903 22.6159 0.355524 20.6864 0.604551 18.8204 1.16406 17.0488 1.94134 16.448 2.2211 15.9421 2.43887 16.8591 2.06586 16.6064 2.15911 16.3532 2.28362 16.0999 2.37687 12.3675 4.1492 11.292 4.98847 8.82479 7.41356 6.29449 10.1502 4.39677 13.3838 2.65692 16.6482 1.67627 18.8868 0.252706 21.1566 0 23.5817 0.157874 25.354 2.91016 25.5098 3.32128 23.7995 6.04124 16.3997 11.6083 8.99938 18.1243 7.16506 20.6864 6.10803 25.2097 6.41904 26.317 6.66754 30.9029 7.66259 32.4531 8.53312 36.3757 11.798 37.261 12.8863 37.1979 12.6998 38.2734 15.5292 38.3995 15.5912 38.2734 15.9329 38.8106 16.7414 40.0445 19.291 44.0932 18.234 43.9984 15.4666 43.9348 15.4979 43.9348 15.4979 43.9348 15.4666Z" fill="#915744" fill-rule="evenodd" transform="matrix(-1 0 0 1 260 890)"/><path d="M14.9775 6.71533C14.8535 4.72433 14.0441 2.95072 12.4883 1.86163 12.1772 1.61242 11.866 1.39503 11.4616 1.27042 11.3683 1.20839 11.275 1.20839 11.1817 1.1771 11.1192 1.14582 11.0879 1.11507 11.0259 1.11507 11.0571 1.11507 11.0879 1.14582 11.0879 1.14582 10.9639 1.11507 10.8706 1.0525 10.746 1.02175 8.41213-0.503186 5.08279-0.316546 2.78019 1.55038-0.0514163 3.60396-0.767534 7.86698 0.850754 10.9471 2.53106 14.463 7.04297 16.1125 10.4969 14.1831 14.2312 12.3161 15.1646 7.55574 14.9775 6.71533Z" fill="#FBF09D" fill-rule="evenodd" transform="matrix(-1 0 0 1 270 934)"/><path d="M0 18.5003C0 8.27862 6.71241 0 15.0004 0 23.2884 0 30.0008 8.27862 30.0008 18.5003 30.0008 28.7215 23.2884 37.0001 15.0004 37.0001 6.71241 37.0001 0 28.7215 0 18.5003Z" fill-rule="evenodd" transform="matrix(-1 0 0 1 368 811)"/><path d="M0 10.685C2.7984 10.9188 6.5298 9.65006 8.69543 7.88004 13.2259 4.20743 13.626-0.0659989 15.4914 0.000568956 16.791 0.0677057 17.0572 1.90373 16.9908 3.1725 16.724 8.44786 15.2916 12.3879 11.7271 17.162 10.6278 18.598 9.22832 19.9669 7.42931 19.9999 5.89645 20.0335 4.06452 16.5276 2.93177 15.4927 1.39892 14.0572 0.366613 11.7865 0 10.685Z" fill-rule="evenodd" transform="matrix(-1 0 0 1 351 806)"/><path d="M29.9999 18.5003C29.9999 8.27862 23.2877 0 15 0 6.71221 0 0 8.27862 0 18.5003 0 28.7215 6.71221 37.0001 15 37.0001 23.2877 37.0001 29.9999 28.7215 29.9999 18.5003Z" fill-rule="evenodd" transform="matrix(-1 0 0 1 494 799)"/><path d="M16.0007 10.1507C13.3663 10.3729 9.85488 9.16754 7.81661 7.48602 3.55203 3.99705 3.176-0.0626988 1.41974 0.000540507 0.197098 0.0643203-0.0539481 1.80854 0.00854624 3.01387 0.259592 8.02545 1.60776 11.7685 4.96323 16.3039 5.99786 17.6681 7.31505 18.9686 9.00827 18.9999 10.4504 19.0318 12.1752 15.7012 13.2413 14.718 14.6835 13.3543 15.6556 11.1971 16.0007 10.1507Z" fill-rule="evenodd" transform="matrix(-1 0 0 1 497 794)"/><path d="M15.4118 0.149487C11.3021-0.298428 6.83901 0.181675 3.59617 2.67876 0.321057 5.17584-1.18797 10.1384 1.0917 13.564 3.27511 16.7976 7.67365 17.4381 11.4946 18.4305 14.2879 19.167 17.0171 20.2233 19.5539 21.6003 21.9298 22.8807 24.1772 24.4176 26.7139 25.314 29.2507 26.2104 32.2687 26.3702 34.5161 24.9299 36.0251 23.9692 37.0529 22.4006 37.7912 20.7677 38.4333 19.2947 37.5664 14.8128 35.6078 12.1553 30.9522 5.94455 23.8884 1.07805 15.4118 0.149487Z" fill="#3F2212" fill-rule="evenodd" transform="matrix(-1 0 0 1 354 764)"/><path d="M21.9939 0.149489C25.9955-0.298432 30.3411 0.181678 33.4986 2.67879 36.6875 5.17591 38.1568 10.1385 35.9372 13.5642 33.8112 16.7978 29.5284 17.4384 25.808 18.4308 23.0883 19.1673 20.4308 20.2235 17.9609 21.6 15.6474 22.8811 13.4592 24.418 10.9892 25.3143 8.51977 26.2107 5.58061 26.3706 3.39236 24.9302 1.92305 23.9695 0.922913 22.4009 0.203435 20.768-0.421781 19.295 0.422314 14.813 2.32938 12.1555 6.86247 5.94463 13.7718 1.07806 21.9939 0.149489Z" fill="#3F2212" fill-rule="evenodd" transform="matrix(-1 0 0 1 499 757)"/><path d="M37.9451 14.2225C37.4327 8.29247 32.761 2.74344 22.8726 0.554957 16.0243-0.966716 8.1844 0.586838 3.6403 5.88243-0.903805 11.2099-1.35189 19.7715 3.19221 25.099 6.07261 28.46 10.4565 30.2676 14.8403 30.8068 19.4166 31.3775 24.1209 30.6799 28.3129 28.8091 31.0646 27.6041 33.625 25.8598 35.3852 23.4498 37.177 21.0716 38.2651 17.9007 37.9451 14.2225Z" fill="#CC6D4C" fill-rule="evenodd" fill-opacity="0.298039" transform="matrix(-1 0 0 1 442 831)"/><path d="M15.9986 30.2113C15.8451 29.5083 15.2018 29.6042 14.6499 29.2524 13.1478 28.7411 10.7575 27.719 9.40879 26.6322 1.68439 20.3055 2.26709 12.2532 8.09093 6.08604 8.5196 5.57474 10.5429 3.78546 11.5542 2.95508 12.2591 2.34795 13.9143 1.86823 14.1288 0.973592 14.2207 0.334876 13.577-0.208549 13.0256 0.0789546 8.33581 2.02832 6.86445 2.66703 3.79954 5.95862-3.46486 14.6817 0.428147 24.9388 9.225 29.1887 10.3894 29.828 16.1213 32.2244 15.9986 30.2113Z" fill="#915744" fill-rule="evenodd" transform="matrix(-1 0 0 1 444 831)"/><path d="M7.99756 1.80574C8.06607 0.228936 6.07283-0.460672 4.83496 0.327452 3.25395 1.11614 2.39435 2.72541 1.46624 4.10518 1.39773 4.23616 1.32863 4.3677 1.26012 4.49925 0.744245 5.28737 0.365974 6.04303 0.159857 6.63412 0.125895 6.70017 0.0913471 6.76566 0.0567992 6.83115-0.0117112 6.99572-0.0117112 7.15972 0.0228368 7.29126 0.0228368 8.44098 1.46624 8.37493 5.31629 5.71446 6.65663 4.82782 8.06607 3.44804 7.99756 1.80574Z" fill-rule="evenodd" transform="matrix(-1 0 0 1 414 852)"/><path d="M283 37.8021C278.59 23.1369 236.3 16.4568 197.151 5.70441 158.794-4.82514 119.422-1.07117 85.317 19.4155 51.2123 39.9336 24.6261 73.7171 15.8061 112.59 13.5536 122.515 12.4749 132.886 14.5058 142.875 16.8216 154.232 23.0712 164.475 25.5145 175.8 27.7984 186.52 26.4976 197.94 21.866 207.865 16.8848 218.49 8.31893 227.143 3.59174 237.927-5.70376 259.209 3.75063 286.853 23.8013 297.001 13.9346 281.222 19.2963 259.972 29.8607 244.639 40.3938 229.306 31.8911 162.598 79.5117 132.441 113.331 111.032 161.078 130.627 214.504 111.032 275.259 88.7319 281.16 51.4172 283 37.8021Z" fill="#3F2212" fill-rule="evenodd" transform="matrix(-1 0 0 1 579 596)"/><path d="M3.38622 2.06096C-9.12362 58.9023 13.8537 145.131 58.659 193.731 60.2867 195.506 59.2978 215.858 62.5209 239.001 69.382 231.265 79.8174 226.827 91.6254 225.845 102.22 193.572 122.708 150.362 107.677 78.4309 105.762 69.2055 89.1041 44.0661 82.3702 37.4403 61.5636 17.056 26.9381-7.29087 3.38622 2.06096Z" fill="#3F2212" fill-rule="evenodd" transform="matrix(-1 0 0 1 321 633)"/><path d="M42.3943 2.35484C39.1792 18.1087 34.5314 33.6419 27.4007 48.1018 23.9627 55.1109 19.9836 61.8354 15.5587 68.2759 13.1711 71.7487 10.6246 75.0956 7.95069 78.3473 5.46766 81.3779 2.22058 84.1878 0.406157 87.6924-1.15394 90.7235 2.06169 94.354 5.24479 92.4914 8.84218 90.376 11.4841 86.7138 14.0946 83.5568 16.8005 80.2733 19.3789 76.8952 21.83 73.4219 26.7001 66.508 31.0295 59.2148 34.7543 51.6064 42.2349 36.3572 47.3284 20.1294 48.9834 3.23878 49.3657-0.455151 43.1583-1.30789 42.3943 2.35484Z" fill="#043F6D" fill-rule="evenodd" transform="matrix(-1 0 0 1 474 1181)"/><path d="M2.7412 0.573333C45.9265 47.8849 103.189 81.53 163.978 101 189.305 108.674 217.141 115.65 242.977 106.803 253.304 102.998 261.883 95.8314 268.207 86.8256 268.684 86.0961 269.669 85.9372 270.368 86.4133 271.035 86.8888 271.194 87.7767 270.75 88.4424 264.648 98.336 255.465 106.486 244.597 110.925 194.453 131.315 98.7716 85.6838 57.4613 55.2734 36.4249 39.9577 16.7233 22.7707 0.32587 2.41221-0.182422 1.74648-0.0871512 0.795425 0.548349 0.288017 1.24772-0.188049 2.23291-0.0610618 2.7412 0.573333L2.7412 0.573333Z" fill="#043F6D" fill-rule="evenodd" transform="matrix(-1 0 0 1 465 1273)"/><path d="M79.078 1.61209C78.254 0.291549 76.7972-0.243315 75.3085 0.1029 71.4753 0.920201 70.1771 4.97723 68.4979 8.02832 66.7243 11.2991 64.7284 14.444 62.5431 17.4629 58.2351 23.407 53.0719 28.8478 47.4657 33.5973 41.9539 38.2519 35.8091 42.1203 29.3158 45.2651 22.6003 48.5043 13.2877 53.0019 5.68554 51.4295-0.0156478 50.2343-2.45508 58.663 3.24664 60.1727 12.5911 62.6257 22.4735 59.1973 30.9945 55.4865 38.7865 52.1214 45.9451 47.687 52.5652 42.4343 59.1853 37.1827 65.0138 31.0811 69.9866 24.2564 72.4892 20.8281 74.77 17.2116 76.7653 13.4691 78.6344 9.94643 81.485 5.44939 79.078 1.61209Z" fill="#043F6D" fill-rule="evenodd" transform="matrix(-1 0 0 1 914 1018)"/><path d="M106.496 6.07527C102.203 7.47534 99.8818 11.0709 96.3521 13.6482 93.0764 16.0352 89.4194 17.8804 85.6036 19.217 77.399 22.0806 68.7496 23.1944 60.0678 23.2898 49.7326 23.3853 39.5253 22.1126 29.9854 17.9758 21.3355 14.2214 13.7354 8.20737 7.37528 1.27047 4.0996-2.29368-1.97396 2.35224 0.633792 6.45701 13.7034 27.0128 36.5362 35.0635 60.0678 34.9995 70.2756 34.9681 80.77 33.7269 90.3099 29.9084 98.228 26.7585 111.68 20.1079 111.998 10.2755 112.093 7.53878 109.167 5.18437 106.496 6.07527Z" fill="#043F6D" fill-rule="evenodd" transform="matrix(-1 0 0 1 457 1036)"/><path d="M267.209 1.43468C261.035 12.3085 254.702 22.9277 246.173 32.1794 237.867 41.209 228.193 48.935 217.499 54.9441 206.552 61.1124 194.618 65.3726 182.238 67.4076 166.613 69.9827 150.637 69.1559 134.884 68.8065 107.356 68.1704 77.4734 69.5059 55.7373 88.614 46.0308 97.1668 39.8252 108.39 38.0113 121.203 36.9613 128.738 37.1201 136.4 35.9426 143.904 34.8291 151.026 32.601 157.989 29.3234 164.411 22.2266 178.337 9.30591 188.129 3.60939 202.882-1.8009 216.903-1.10049 231.719 5.51871 245.105 6.44193 246.948 9.49673 245.677 8.86029 243.706 4.75487 231.02 5.04165 215.918 10.356 203.645 15.8617 190.959 27.2867 182.248 34.0967 170.325 41.2575 157.766 43.485 144.444 44.5037 130.233 45.0127 123.174 45.7766 116.021 48.7999 109.535 51.3777 103.971 55.1329 99.1064 59.588 94.9097 81.2606 74.5295 113.212 75.3877 140.962 76.0871 156.079 76.4691 171.291 76.7232 186.248 73.9887 197.928 71.8589 209.225 67.6936 219.664 62.0346 242.45 49.6984 264.154 28.5868 272.842 3.72376 273.956 0.513081 268.896-1.52191 267.209 1.43468Z" fill="#2B1200" fill-rule="evenodd" transform="matrix(-1 0 0 1 568 640)"/><path d="M101.054 152.836C75.3549 150.733 59.8013 128.901 47.6199 108.63 34.8018 87.3075 23.2565 65.0926 14.8915 41.6029 10.2157 28.5033 5.9539 14.798 3.21833 1.15686 2.86886-0.627854-0.152789-0.245493 0.00595986 1.60331 1.0874 14.8301 3.21833 27.4197 7.29 40.0729 11.3292 52.6941 16.4498 64.9014 22.207 76.8214 27.9637 88.7099 34.3884 100.28 41.1632 111.594 47.8425 122.781 54.9353 134.032 64.4451 143.052 74.4327 152.486 87.0915 159.339 101.054 158.988 105.03 158.86 104.934 153.155 101.054 152.836Z" fill="#2B1200" fill-rule="evenodd" transform="matrix(-1 0 0 1 321 689)"/><path d="M16.2847 37.1292C12.3144 33.1572 9.33629 28.7977 7.75426 23.2755 5.83142 16.591 5.83142 9.35729 5.58307 2.44663 5.4589-0.879928 1.05416-0.750608 0.713339 2.44663-0.0935267 10.3583-0.682692 18.4961 1.64385 26.2141 3.62905 32.8341 7.35109 39.0988 13.6792 41.8117 16.2229 42.9096 18.0839 38.9375 16.2847 37.1292Z" fill="#2B1200" fill-rule="evenodd" transform="matrix(-1 0 0 1 266 823)"/><path d="M28.9376 125.935C36.5752 115.156 37.6024 103.268 34.008 90.777 32.0181 83.834 29.1301 77.1767 27.0122 70.2973 24.8939 63.3861 23.6103 56.2529 23.1932 49.0564 22.2944 33.3324 25.1508 17.0055 31.3763 2.48561 32.1788 0.615326 29.5794-1.0648 28.5205 0.837362 21.6526 13.2644 17.7374 26.7383 17.3203 40.9092 16.8709 55.5241 20.2728 69.0607 25.2148 82.693 27.8465 89.9526 30.6061 97.5294 30.4459 105.36 30.3174 112.144 27.4933 118.104 23.6103 123.557 16.2614 133.924 6.53767 142.23 2.42942 154.594-2.15936 168.384-0.330191 183.665 8.62323 195.236 9.93907 196.948 12.667 195.521 11.6081 193.524 5.57443 182.238 3.64905 168.257 7.72505 156.052 11.7043 144.1 21.8451 135.953 28.9376 125.935Z" fill="#2B1200" fill-rule="evenodd" transform="matrix(-1 0 0 1 584 679)"/><path d="M205.788 0.246582C192.917 9.80842 177.217 11.5932 161.676 11.912 144.037 12.2628 126.399 10.8284 108.761 10.8605 77.4563 10.924 43.165 15.7688 19.8376 38.7487 8.58731 49.8405 0.896519 64.2786 0.00649651 80.2147-0.216009 84.0073 5.40943 83.8482 5.8225 80.2147 9.25483 49.4576 36.1092 29.4101 64.1401 22.1115 97.0969 13.5376 130.817 19.8803 164.282 17.617 179.696 16.5655 195.427 12.454 207.567 2.50981 208.807 1.48981 207.122-0.741375 205.788 0.246582Z" fill="#2B1200" fill-rule="evenodd" transform="matrix(-1 0 0 1 542 653)"/><path d="M194.467 0.406925C183.137 10.4016 166.41 10.0217 152.35 8.02908 136.671 5.81552 121.246 2.74715 105.409 1.95647 78.2089 0.596643 49.9295 4.73973 26.8873 20.08 15.4935 27.6391 5.71796 37.4753 0.195176 50.0949-0.788275 52.309 2.19506 54.2067 3.52777 52.0562 16.7949 30.4854 38.1232 16.1261 62.7841 10.5278 78.2089 7.01743 94.2048 6.70105 109.948 7.96602 125.531 9.19973 140.734 12.6152 156.222 14.2602 170.854 15.8415 185.993 13.5325 196.562 2.52617 197.895 1.10274 195.895-0.858045 194.467 0.406925Z" fill="#2B1200" fill-rule="evenodd" transform="matrix(-1 0 0 1 534 629)"/><path d="M68.9102 115.419C30.4813 88.6927 15.0911 43.1348 1.84394 0.652625 1.49237-0.488928-0.203307-0.0135063 0.0201672 1.15938 9.4595 45.7345 25.4581 93.9558 66.4144 119.604 69.1342 121.284 71.4376 117.194 68.9102 115.419Z" fill="#2B1200" fill-rule="evenodd" transform="matrix(-1 0 0 1 292 688)"/><path d="M62.9984 99.6957C49.0697 86.2001 35.2689 72.7996 24.4709 56.6113 13.6414 40.3917 6.10208 21.6688 4.56853 2.18583 4.34487-0.696939-0.0315634-0.7601 0 2.18583 0.638887 43.0844 27.6338 79.2621 58.462 104.194 61.5928 106.76 66.0013 102.642 62.9984 99.6957Z" fill="#2B1200" fill-rule="evenodd" transform="matrix(-1 0 0 1 269 667)"/><path d="M51.2363 93.9998C41.2395 93.9998 31.338 91.3738 23.0023 86.0592 4.89283 74.5118-4.05007 51.5751 1.76279 31.5173 4.22199 23.0068 9.14094 15.4457 15.6241 10.2572 23.9604 3.58189 35.3625 0.133162 49.48 0.00700852 70.8153-0.214568 86.4334 4.91081 95.6956 15.1292L95.6956 15.1292C111.154 32.1815 101.285 61.6356 95.9513 70.462 92.6935 75.8402 88.0939 80.5861 82.3452 84.5405 73.1787 90.8363 62.1596 93.9998 51.2363 93.9998ZM50.5655 6.36589C50.2145 6.36589 49.8631 6.36589 49.5116 6.36589 36.8641 6.46077 26.8031 9.43454 19.6165 15.1923 14.1551 19.5586 10.0028 25.9806 7.89502 33.257 2.94451 50.436 10.9293 70.8415 26.4517 80.744 41.7825 90.5198 63.2771 89.9505 78.6722 79.3838 83.6863 75.9351 87.6472 71.854 90.4579 67.2354 94.9611 59.8004 103.808 33.6053 90.9366 19.4001 83.0797 10.7317 69.5057 6.36589 50.5655 6.36589Z" fill="#FBF09D" fill-rule="evenodd" transform="matrix(-1 0 0 1 404 781)"/><path d="M52.6896 95.0008C39.2562 95.0008 25.664 90.0425 15.6046 80.7625 10.4477 76.0268 6.59603 70.6559 4.14502 64.8712 0.101945 55.3686-5.46867 24.6676 12.1666 9.85742 22.7353 0.99002 38.8105-1.93401 59.9157 1.24457 73.8583 3.34213 84.5863 8.33177 91.8759 16.1182 97.5419 22.1568 101.33 30.3565 102.571 39.1919 105.468 59.945 93.4354 81.525 73.9537 90.4877 67.3007 93.5065 60.0432 95.0008 52.6896 95.0008ZM16.2732 14.6878 16.2732 14.6878C1.56658 27.0512 6.62802 54.32 10.0339 62.3604 12.1347 67.3187 15.4771 71.959 19.9659 76.0902 33.6856 88.7714 54.7909 92.2988 71.3118 84.703 88.0242 77.012 98.7837 57.816 96.3007 40.0498 95.2498 32.5174 92.0348 25.5575 87.2602 20.4406 80.957 13.7346 71.4713 9.38028 58.9928 7.50531 39.7654 4.61323 25.3771 7.06012 16.2732 14.6878Z" fill="#FBF09D" fill-rule="evenodd" transform="matrix(-1 0 0 1 535 767)"/><path d="M36.7741 22C35.2732 22 33.9639 20.9233 33.6446 19.3895 31.7929 10.0229 25.6611 6.59588 20.5521 6.53082 15.3467 6.46519 9.78999 9.23924 5.57524 14.135 4.42527 15.5053 2.38154 15.6038 1.07218 14.4286-0.237175 13.2535-0.364466 11.1652 0.784962 9.82709 6.24542 3.46312 13.4308-0.127357 20.6794 0.00333687 27.9284 0.134031 37.317 4.93134 39.9357 18.1164 40.2871 19.8789 39.1692 21.6085 37.4448 21.9677 37.1897 21.9677 36.9976 22 36.7741 22Z" fill="#FBF09D" fill-rule="evenodd" transform="matrix(-1 0 0 1 437 801)"/><path d="M57.8001 17.0002C57.6082 17.0002 57.3841 16.9679 57.1922 16.9361L2.59184 6.36261C0.863583 6.04114-0.288951 4.33795 0.0632422 2.60244 0.38327 0.866932 2.04774-0.289708 3.80816 0.0635276L58.408 10.637C60.1363 10.9585 61.2888 12.6617 60.9366 14.3972 60.6487 15.9394 59.3043 17.0002 57.8001 17.0002Z" fill="#FBF09D" fill-rule="evenodd" transform="matrix(-1 0 0 1 307 822)"/><path d="M20.0508 0.84798C17.8003-0.398665 14.9959-0.270678 12.9087 1.2314 10.5282 2.95731 8.50599 5.22622 6.61435 7.4314 5.4077 8.86975 4.23383 10.3397 3.12496 11.8423 2.70107 12.4174 2.27719 13.0247 1.85331 13.6319 1.62498 13.9516 1.39665 14.3029 1.20054 14.6548 1.03776 14.9744 0.907209 15.3257 0.776656 15.6776 0.743878 15.7091 0.711657 15.7413 0.678879 15.805-0.658324 17.8185 0.0916654 20.5993 1.95053 22.0055 3.93994 23.5076 6.54935 23.2516 8.37544 21.6221 10.5932 19.6402 12.8437 17.6589 15.0615 15.7091 16.1698 14.7506 17.2786 13.7599 18.3553 12.7687 19.6269 11.6185 21.1597 10.4998 22.073 9.02987 23.8669 6.21689 22.9863 2.47804 20.0508 0.84798Z" fill="#FFFFFF" fill-rule="evenodd" fill-opacity="0.356863" transform="matrix(-1 0 0 1 523 780)"/><path d="M21.6771 0.879736C20.1981-0.0736271 18.3652-0.23225 16.7251 0.307501 15.2778 0.784454 13.9916 1.70533 12.7377 2.56341 11.5156 3.38955 10.3576 4.27903 9.20011 5.20046 7.62467 6.43912 6.14509 7.80501 4.79479 9.29867 4.56965 9.48923 4.34451 9.6798 4.15114 9.87036 2.02901 11.9038-0.768547 14.2544 0.196108 17.5265 1.09667 20.5766 4.60142 21.5614 7.4313 20.7038 9.58575 20.0363 11.5797 18.5432 13.3803 17.2093 15.3742 15.7475 17.2718 14.1911 19.0083 12.4755 19.7478 11.7765 20.4232 11.0143 21.0986 10.2515 22.1597 9.04422 23.4459 7.77361 23.8315 6.18522 24.4105 4.15181 23.4459 2.02312 21.6771 0.879736Z" fill="#FFFFFF" fill-rule="evenodd" fill-opacity="0.356863" transform="matrix(-1 0 0 1 392 801)"/><path d="M10.8431 3.22981C10.64 2.48189 10.2673 1.83592 9.72553 1.29193 8.84512 0.407855 7.592-0.034181 6.37234 0.034181 6.2708 0.034181 6.16925 0 6.06771 0 5.35634 0 4.71305 0.169746 4.06918 0.543999 3.83206 0.747926 3.59493 0.917673 3.32435 1.1216 3.32435 1.1216 3.32435 1.1216 3.32435 1.1216 2.7826 1.29193 2.34181 1.59782 1.96968 2.00567 1.9016 2.07403 1.8341 2.14182 1.73256 2.2096 1.59698 2.34574 1.42736 2.48189 1.29235 2.61803 1.05523 2.92392 0.851568 3.19563 0.615022 3.50152L0.174237 4.52174C0.106734 4.89541 0.0726948 5.26967 0.00519249 5.67752-0.0288472 6.2557 0.106734 6.8333 0.377898 7.34312 0.47944 7.71737 0.648484 8.02326 0.919648 8.29555 1.12273 8.63505 1.35986 8.87315 1.69852 9.07708 1.96968 9.34937 2.27431 9.51912 2.64702 9.62108 3.15473 9.89337 3.69648 10.0289 4.3063 9.99533 4.78055 9.96115 5.28884 9.89337 5.76309 9.7914 5.86463 9.75722 6.00021 9.75722 6.10175 9.72304 6.20329 9.68944 6.3383 9.65526 6.43984 9.62108 6.88062 9.45133 7.35487 9.24741 7.79508 9.04348 7.99816 8.94094 8.20125 8.80537 8.40433 8.66923 8.77704 8.39752 9.18378 8.09105 9.52245 7.78516 9.55591 7.75155 9.62399 7.71737 9.65745 7.64959 9.69149 7.61541 9.69149 7.61541 9.72553 7.58123 10.1657 7.17337 10.4704 6.69716 10.64 6.15374 10.7756 5.98341 10.8431 5.77948 10.8771 5.57556 11.0462 4.79345 11.0462 4.01192 10.8431 3.22981Z" fill="#FFFFFF" fill-rule="evenodd" fill-opacity="0.356863" transform="matrix(-1 0 0 1 364 792)"/><path d="M231.966 1720 220 1763.94 449.401 1765 452 1743.29Z" fill="#D3487E" fill-rule="evenodd"/><path d="M507 1729 509.076 1763 693 1763 691.966 1739.82Z" fill="#D3487E" fill-rule="evenodd"/><text fill="#FCFCFC" font-family="47,47_MSFontService,sans-serif" font-weight="700" font-size="147" transform="matrix(1 0 0 1 670.226 727)">HumPubIt!</text></g></svg>