<svg width="1574" height="1652" xmlns="http://www.w3.org/2000/svg" xmlns:xlink="http://www.w3.org/1999/xlink" overflow="hidden"><defs><clipPath id="clip0"><rect x="1627" y="149" width="1574" height="1652"/></clipPath></defs><g clip-path="url(#clip0)" transform="translate(-1627 -149)"><path d="M1845.66 1763 3201 1763 3201 207.75C2974.27 190.13 2746.24 182.62 2521.84 227.971 2446.25 243.243 2366.62 267.76 2312.61 341.275 2247.9 429.341 2237.73 581.642 2289.75 684.078 2218.11 679.673 2145.33 678.157 2075.87 702.276 2006.38 726.395 1939.63 779.221 1902.28 862.484 1864.91 945.747 1863.23 1061.72 1909.55 1136.21 1930.28 1169.54 1959.56 1194.35 1972.51 1234.28 1855.46 1223.56 1739.36 1342.6 1714.73 1498.62 1704.32 1564.45 1710.13 1638.5 1741.8 1690.24 1767.73 1732.6 1805.16 1753 1845.66 1763Z" fill="#FBF4D9" fill-rule="evenodd"/><path d="M3011 1667 3037 1667 3037 1786 3011 1786Z" fill="#043F6D" fill-rule="evenodd"/><path d="M2646 1667 2672 1667 2672 1786 2646 1786Z" fill="#043F6D" fill-rule="evenodd"/><path d="M2584 1688.01 2584.59 1657.27C2584.32 1658.24 2592.06 1638 2592.06 1638L3128.81 1639 3141 1658.24 3140.02 1688.01C3140.02 1692.42 3136.42 1696 3131.96 1696L2592.06 1696C2587.61 1696 2584 1692.39 2584 1688.01Z" fill="#043F6D" fill-rule="evenodd"/><path d="M2584 1658 3141 1658C3103.52 1593.96 3060.87 1526.74 3013.27 1469.49 3008.17 1463.32 3002.7 1456.99 2995.25 1453.87 2989.3 1451.37 2982.63 1451.14 2976.15 1450.98 2846.54 1447.41 2651.08 1454.75 2651.08 1454.75 2645.46 1456.99 2594.09 1620.46 2584 1658Z" fill="#50A8A9" fill-rule="evenodd"/><path d="M2901.19 1621.88C2922.08 1619.37 2943.35 1616.76 2962.54 1608.16 2981.71 1599.53 2998.82 1583.76 3003.63 1563.37 3008.6 1542.32 2999.57 1519.78 2984.76 1503.98 2969.95 1488.15 2950.07 1478.01 2930.07 1469.64 2851.57 1436.9 2764.88 1427.16 2679.89 1430.68 2660.6 1431.46 2639.52 1433.74 2625.98 1447.46 2612.53 1461.07 2610.55 1481.92 2609.32 1500.98 2607.33 1531.93 2604.67 1562.94 2603.37 1593.93 2602.72 1609.76 2601.07 1629.4 2617.86 1637.39 2639.75 1647.81 2679.11 1640.68 2702.82 1639.89 2734.81 1638.82 2766.7 1636.44 2798.56 1633.38 2832.79 1630.06 2866.96 1625.53 2901.19 1621.88Z" fill="#50A8A9" fill-rule="evenodd"/><path d="M3054 1594.3 3054 1198 3080 1198 3080 1594.3C3076.65 1599.99 3059.17 1601.13 3054 1594.3Z" fill="#043F6D" fill-rule="evenodd"/><path d="M2970 1489.3 2970 1093 2996 1093 2996 1489.3C2992.65 1494.99 2975.17 1496.12 2970 1489.3Z" fill="#043F6D" fill-rule="evenodd"/><path d="M3077.37 1257C3049.56 1257 2890.27 1175.42 2887.17 1170.08 2879.79 1157.37 2909.55 865.046 2911.51 852.234 2925.53 851.227 3070.93 839 3077.37 839 3084.2 849.828 3075.32 1194.5 3077.37 1257Z" fill="#043F6D" fill-rule="evenodd"/><path d="M3060 1239.67 3060 856.33C3060 846.771 3067.69 839 3077.21 839L3126.79 847.714C3136.28 847.714 3144 855.452 3144 865.044L3140.77 1239.67C3140.77 1249.23 3133.08 1257 3123.56 1257L3077.21 1257C3067.69 1257 3060 1249.23 3060 1239.67Z" fill="#50A8A9" fill-rule="evenodd"/><path d="M2567.23 1319C2508.9 1358.23 2434.59 1391.94 2369.55 1422.1 2319.19 1445.47 2265.84 1471.41 2237.43 1519.06 2203.38 1576.11 2260.11 1744.77 2301.58 1789.66 2305.69 1794.12 2334.59 1801.36 2357.51 1789.66 2365.77 1740.19 2337.75 1639.07 2346.02 1589.6 2347.48 1580.89 2349.08 1571.82 2354.38 1564.77 2359.17 1558.39 2366.46 1554.4 2373.59 1550.82 2448.26 1513.28 2531.91 1497.87 2609.94 1468 2612.84 1466.9 2615.9 1465.63 2617.62 1463.03 2620.22 1459.09 2618.66 1453.83 2616.87 1449.47 2597.86 1403.32 2562.67 1348.61 2567.23 1319Z" fill="#D3487E" fill-rule="evenodd"/><path d="M2974.45 1359.22C3007.27 1359.44 2975.75 1425.54 2965.48 1456.67 2953.05 1494.24 2925.15 1525.15 2892.66 1547.76 2765.7 1636.25 2607.2 1645.61 2501.67 1633.07 2505.37 1677.23 2507.81 1706.25 2511.52 1750.42 2512.07 1756.85 2512.43 1763.97 2508.46 1769.1 2505.5 1772.97 2500.69 1774.85 2496.07 1776.48 2462.09 1788.47 2394.54 1798.58 2358.58 1800.75 2351.26 1801.21 2343.55 1801.37 2336.95 1798.15 2330.15 1794.84 2325.5 1788.4 2321.37 1782.1 2295.61 1742.84 2278.35 1698.03 2271.06 1651.66 2265.4 1615.62 2266.28 1576.65 2284.98 1545.33 2299.32 1521.25 2322.67 1504.09 2345.86 1488.36 2404.23 1448.78 2465.76 1413.88 2528.56 1385.31 2514.71 1351.16 2495.1 1334.48 2487.91 1273 2786.26 1441.53 2953.97 1359.08 2974.45 1359.22Z" fill="#768A9E" fill-rule="evenodd"/><path d="M2974.45 1358.35C2953.96 1358.22 2786.27 1440.73 2488 1272 2493.2 1316.59 2504.94 1337.63 2516.26 1358.84 2626.78 1433.48 2760.75 1491.96 2894.65 1496.93 2869.03 1540.87 2833.26 1574.96 2791.57 1600 2826.37 1586.8 2860.54 1569.46 2892.67 1547.05 2912.63 1533.13 2930.84 1516.06 2944.83 1496.25 2953.57 1483.83 2960.69 1470.36 2965.47 1455.86 2975.78 1424.73 3007.26 1358.58 2974.45 1358.35Z" fill="#D3487E" fill-rule="evenodd"/><path d="M2895 1497.22C2761 1492.24 2626.93 1433.71 2516.32 1359 2520.65 1367.07 2524.88 1375.18 2528.72 1384.59 2465.89 1413.23 2404.32 1448.16 2345.91 1487.81 2322.71 1503.57 2299.34 1520.76 2284.99 1544.88 2266.28 1576.26 2265.4 1615.29 2271.06 1651.4 2278.35 1697.85 2295.63 1742.74 2321.4 1782.07 2325.54 1788.38 2330.19 1794.83 2336.99 1798.15 2343.6 1801.37 2351.28 1801.21 2358.63 1800.75 2394.65 1798.57 2462.21 1788.45 2496.21 1776.44 2500.8 1774.81 2505.62 1772.92 2508.61 1769.05 2512.55 1763.9 2512.19 1756.77 2511.67 1750.33 2507.96 1706.09 2505.52 1677.02 2501.81 1632.78 2580.69 1642.18 2689.12 1639.32 2791.88 1600.32 2833.56 1575.29 2869.36 1541.2 2895 1497.22Z" fill="#FE94BD" fill-rule="evenodd"/><path d="M2901.73 899C2926.15 912.381 2948.03 933.706 2960.34 958.677 2972.65 983.648 2973.14 1003.28 2982.12 1029.62 3037.8 1192.47 2990.42 1453.35 2986 1456.28 2958.45 1474.58 2862.33 1479.2 2736.17 1450.36 2630.77 1426.26 2565.72 1398.49 2496.3 1315.63 2494.15 1313.06 2504.15 1278.13 2503.73 1274.78 2503.3 1271.39 2504.8 1268.1 2506.23 1265.04 2557.74 1155.42 2610.91 1046.55 2670.69 931.362 2748.02 931.427 2824.92 925.892 2901.73 899Z" fill="#FBF09D" fill-rule="evenodd"/><path d="M2710.75 925.28C2708.22 938.586 2705.81 952.905 2711.44 965.197 2714.2 971.245 2718.75 976.313 2723.76 980.693 2740.93 995.731 2764.02 1003.35 2786.79 1002.99 2809.55 1002.63 2831.7 994.227 2850.69 981.608 2882.59 960.359 2905 915.277 2905 899.029 2905 883.958 2764.57 930.283 2710.75 925.28Z" fill="#C58D60" fill-rule="evenodd"/><path d="M2711 964.543C2711.1 964.772 2711.2 965 2711.29 965.229 2714.06 971.272 2718.62 976.335 2723.63 980.712 2740.82 995.737 2763.94 1003.35 2786.73 1002.99 2809.51 1002.63 2831.69 994.234 2850.7 981.626 2882.15 960.754 2904.32 916.855 2905 900 2851.15 945.174 2781.52 972.578 2711 964.543Z" fill="#C58D60" fill-rule="evenodd"/><path d="M2710.74 925.309C2708.27 938.374 2705.9 952.455 2711.13 964.604 2781.58 972.659 2851.14 945.185 2904.93 899.897 2904.93 899.636 2905 899.308 2905 899.046 2905 883.918 2764.57 930.318 2710.74 925.309Z" fill="#782D53" fill-rule="evenodd" fill-opacity="0.0980392"/><path d="M2635.75 1473 1679.23 1473C1671.97 1473 1667.03 1465.69 1669.76 1458.96L1836.77 1045.4C1838.3 1041.67 1841.88 1039.16 1845.91 1039.03L2468.22 1019C2472.58 1018.87 2476.51 1021.48 2478.07 1025.54L2645.31 1459.15C2647.88 1465.82 2642.94 1473 2635.75 1473Z" fill="#50A8A9" fill-rule="evenodd"/><path d="M1776 1623 1821 1623 1821 1786 1776 1786Z" fill="#043F6D" fill-rule="evenodd"/><path d="M2512 1615 2558 1615 2558 1778 2512 1778Z" fill="#043F6D" fill-rule="evenodd"/><path d="M1688 1608.87 1688 1502 2628 1502 2628 1608.84C2628 1618.3 2620.36 1626 2610.9 1626L1705.1 1626C1695.67 1626 1688 1618.33 1688 1608.87Z" fill="#50A8A9" fill-rule="evenodd"/><path d="M1670.27 1494.44 1669 1463 2646 1463 2645.06 1491.77C2644.86 1497.27 2640.34 1501.62 2634.78 1501.65L1681.2 1504C1675.6 1504.03 1670.92 1499.91 1670.27 1494.44Z" fill="#043F6D" fill-rule="evenodd"/><path d="M2433.72 1110.19C2432.06 1103.57 2426.27 1098.83 2419.44 1098.54 2286.75 1092.61 2153.86 1091.44 2021.03 1095.04 2017.59 1095.14 2013.98 1095.27 2011.02 1097.15 2007.47 1099.35 2005.49 1103.54 2003.7 1107.49 1962.86 1197.56 1919.1 1336.89 1919 1347.27 1918.93 1353.92 2316.73 1357.62 2493.12 1355.31 2497.97 1355.25 2503.95 1354.37 2505.61 1349.48 2506.55 1346.69 2505.61 1343.57 2504.7 1340.78 2478.91 1263.76 2453.13 1186.76 2433.72 1110.19Z" fill="#FCFCFC" fill-rule="evenodd"/><path d="M2105.01 1176.1C2114.02 1175.29 2123.97 1168.23 2120.17 1158.19 2118.15 1153.28 2113.82 1149.99 2109.43 1147.03 2116.26 1143.72 2119.68 1135.98 2117.53 1130.45 2116.65 1127.85 2112.88 1127.17 2111.03 1129.15 2109.63 1130.48 2109.89 1132.24 2109.85 1133.99 2109.43 1135.29 2110.08 1134.61 2108.23 1137.54 2106.31 1139.13 2105.46 1139.78 2101.72 1140.76 2101.46 1140.79 2101.27 1140.95 2101.04 1141.02 2101.14 1140.92 2100.94 1140.92 2100.29 1141.21 2098.44 1141.77 2096.52 1143.16 2096.55 1145.31 2096.55 1146.74 2097.27 1148.01 2098.5 1148.72 2098.86 1148.85 2099.77 1149.21 2100.29 1149.44 2106.02 1152.89 2108.13 1154.22 2112.52 1158.97 2118.02 1167.49 2100.23 1170.87 2083.64 1168.04 2083.77 1168.07 2083.9 1168.07 2084.03 1168.1 2082.59 1167.91 2081.2 1167.58 2079.83 1167.29 2079.83 1167.29 2079.83 1167.29 2079.86 1167.29 2079.5 1167.23 2078.66 1166.97 2078.3 1166.84 2078.27 1166.84 2078.24 1166.8 2078.2 1166.8 2078.17 1166.8 2078.2 1166.8 2078.17 1166.8 2076.15 1166.19 2074.43 1166.54 2073.97 1169.5 2073.97 1171.71 2077.13 1173.5 2081.55 1174.74 2089.2 1178.93 2095.64 1185.01 2099.58 1192.88 2105.76 1206.7 2105.63 1223.22 2097.82 1229.08 2097.17 1229.56 2096.42 1229.99 2095.64 1230.34 2093.43 1227.03 2090.53 1224.16 2087.31 1221.76 2083.67 1218.83 2079.15 1216.52 2074.36 1217.5 2069.78 1218.34 2065.97 1223.48 2067.6 1228.1 2070.66 1237.85 2083.21 1238.51 2091.8 1237.66 2092.45 1237.63 2093.1 1237.46 2093.72 1237.37 2096.19 1243.09 2096.97 1249.37 2096.52 1255.15 2095.96 1261.01 2091.31 1272.45 2082.27 1276.36 2081.49 1276.62 2080.71 1276.84 2079.96 1277.04 2077.16 1273.17 2073.58 1269.79 2069.88 1266.96 2064.05 1263.12 2052.67 1257.01 2047.01 1263.74 2042.35 1273.36 2053.94 1281.23 2062.26 1282.86 2068.28 1284.19 2073.81 1284.13 2078.72 1282.96 2084.12 1293.23 2081.33 1305.65 2069.75 1311.25 2063.99 1313.78 2059.4 1313.75 2053.02 1313 2050.23 1312.52 2042.52 1311.28 2038.61 1308.78 2032.63 1305.39 2027.39 1300.74 2023.81 1294.73 2023.03 1293.49 2022.77 1292.09 2021.93 1290.18 2021.83 1289.82 2021.57 1289.49 2021.24 1289.3 2020.17 1288.58 2018.67 1289.75 2019.06 1290.96 2022.58 1302.11 2032.56 1310.63 2043.4 1314.43 2052.05 1316.91 2061.61 1318.34 2070.27 1315.21 2080.8 1311.38 2087.64 1299.83 2085.26 1288.78 2084.77 1286.27 2083.9 1283.93 2082.79 1281.69 2098.96 1275.35 2106.5 1255.93 2098.76 1236.59 2098.66 1236.33 2098.53 1236.07 2098.44 1235.77 2103.74 1232.98 2107.55 1227.45 2108.98 1221.56 2110.64 1213.82 2109.33 1205.86 2107.35 1198.31 2105.01 1189.79 2099.84 1182.44 2093.26 1176.66 2097.62 1176.88 2101.92 1176.72 2105.01 1176.1ZM2057.81 1275.64C2052.5 1273.49 2050.16 1267.93 2051.27 1266.41 2051.37 1266.18 2052.24 1265.82 2052.93 1265.75 2061.35 1264.97 2068.54 1270.76 2074.23 1276.84 2074.59 1277.2 2074.92 1277.62 2075.24 1278.01 2068.93 1278.99 2062.95 1278.21 2057.81 1275.64ZM2076.06 1229.89C2073.16 1228.16 2072.05 1225.95 2072.54 1224.62 2073.19 1222.93 2074.69 1222.05 2076.38 1222.02 2079.76 1221.5 2083.83 1225.11 2084.77 1225.79 2087.08 1227.55 2088.97 1229.56 2090.53 1231.74 2085.29 1232.46 2079.44 1231.58 2076.06 1229.89Z" fill="#043F6D" fill-rule="evenodd"/><path d="M2148.75 1131.12C2144.64 1130.08 2146.03 1136.23 2145.32 1138.67 2145.12 1140.62 2143.83 1146.96 2142.92 1150.54 2138.28 1167.85 2135.3 1185.52 2130.87 1202.86 2123.71 1229.58 2116.06 1256.16 2110.36 1283.23 2107.44 1295.82 2104.78 1308.48 2102.06 1321.14 2101.54 1322.92 2104.43 1323.87 2104.95 1321.92 2110.58 1296.34 2116.03 1270.7 2122.73 1245.36 2130.51 1218.77 2137.67 1192.09 2143.34 1164.96 2145.51 1155.78 2148.26 1146.74 2149.46 1137.37 2149.43 1135.35 2151.08 1132.26 2148.75 1131.12Z" fill="#043F6D" fill-rule="evenodd"/><path d="M2189 1305C2189 1305 2189 1305 2189 1305 2188.89 1304.86 2188.56 1304.43 2188 1304 2188.33 1304.29 2188.67 1304.57 2189 1305 2189 1305 2189 1305 2189 1305Z" fill="#3D3722" fill-rule="evenodd"/><path d="M2259 1189.4C2256.76 1182.32 2251.64 1176.86 2245.68 1172.44 2256.17 1170.81 2264.87 1164.31 2262.65 1152.09 2261.84 1147.96 2259.79 1144.23 2257.02 1141.14 2256.5 1140.39 2255.58 1140 2254.7 1140 2253.11 1139.97 2251.67 1141.4 2251.71 1142.99 2252.29 1145.79 2253.3 1145.46 2254.93 1148.61 2256.63 1152.87 2257.83 1157.1 2254.51 1161.22 2251.64 1165.25 2242.26 1167.27 2234.54 1165.48 2234.21 1165.29 2233.85 1165.09 2233.53 1164.93 2231.74 1163.95 2227.34 1161.91 2227.73 1162.04 2226.23 1161.29 2224.6 1160.38 2222.87 1160.61 2219.13 1161.19 2219.26 1165.22 2221.86 1167.24 2225.71 1170.2 2231.02 1172.02 2236.56 1172.6 2248.02 1179.78 2258.48 1191.22 2250.53 1198.6 2245.94 1202.08 2239.52 1203.44 2232.42 1203.35 2223.39 1197.82 2213.98 1192.85 2204.01 1189.31 2198.6 1187.65 2192.9 1185.44 2187.17 1185.96 2184.2 1186.41 2181.56 1189.37 2183.48 1192.26 2185.99 1195.81 2190.26 1197.4 2193.91 1199.48 2205.67 1205.49 2218.57 1209.98 2231.9 1210.07 2239.88 1215.18 2246.53 1220.6 2248.51 1227.37 2250.6 1233.8 2245.16 1236.53 2233.01 1235.49 2231.54 1235.46 2227.01 1234.13 2224.01 1232.99 2222.91 1232.44 2221.83 1231.88 2220.79 1231.36 2218.54 1230.88 2216.52 1233.18 2217.3 1235.36 2218.51 1237.8 2219.35 1237.6 2220.27 1238.35 2222.97 1239.85 2226.23 1240.95 2229.68 1241.63 2230.66 1242.19 2231.64 1242.71 2232.68 1243.29 2248.74 1251.38 2257.6 1266.86 2248.09 1274.14 2246.95 1274.88 2245.71 1275.47 2244.47 1275.96 2240.99 1271.54 2236.78 1267.7 2232.35 1264.65 2226.42 1260.68 2217.99 1256.85 2211.08 1260.39 2200.17 1267.41 2208.73 1278.33 2218.15 1281.29 2218.8 1281.55 2219.48 1281.74 2220.17 1281.94 2226.52 1284.15 2234.5 1284.63 2241.48 1283.11 2244.73 1288.05 2246.66 1293.31 2246.95 1298.38 2246.17 1317.69 2206.49 1318.18 2188.47 1303.75 2188.53 1303.81 2188.53 1303.81 2188.47 1303.75 2188.31 1303.62 2188.11 1303.49 2187.95 1303.36 2188.05 1303.42 2188.11 1303.45 2188.18 1303.52 2183.91 1299.94 2179.28 1296.43 2176.87 1291.33 2176.15 1290.03 2176.06 1288.11 2175.21 1286.78 2173.84 1284.7 2170.36 1286.49 2171.1 1288.83 2172.54 1296.63 2178.43 1302.32 2184.23 1307.26 2191.63 1313.63 2200.75 1317.79 2210.43 1319.22 2216.65 1320.19 2228.74 1320.78 2237.37 1317.72 2244.57 1315.12 2251.8 1309.37 2252.98 1301.41 2253.73 1294.16 2251.61 1287.17 2247.93 1280.99 2255.32 1277.42 2259.82 1270.53 2256.3 1259.74 2253.01 1252.36 2247.11 1246.77 2240.5 1242.25 2251.35 1241.24 2259.82 1235.04 2252.85 1221.42 2250.37 1216.25 2246 1212.54 2241.35 1209.23 2251.61 1207.25 2261.94 1201.43 2259 1189.4ZM2213.39 1267.77C2214.83 1263.28 2226.42 1267.05 2233.72 1274.43 2234.86 1275.44 2235.91 1276.48 2236.88 1277.55 2224.83 1278.1 2211.86 1271.31 2213.39 1267.77ZM2216.26 1201.1C2208.64 1199.15 2201.18 1196.13 2194.99 1192.72 2201.27 1194.15 2209.19 1197.5 2216.26 1201.1Z" fill="#043F6D" fill-rule="evenodd"/><path d="M2395.7 1264.04C2404.74 1250.63 2393.48 1234.67 2382.84 1225.98 2381.18 1224.45 2378.31 1222.72 2375.34 1221.15 2385.16 1217.66 2393.09 1209.47 2394.75 1198.67 2394.23 1191.42 2389.63 1184.66 2384.41 1179.83 2384.38 1179.8 2384.34 1179.77 2384.28 1179.74 2389.3 1175.92 2393.77 1170.86 2395.21 1164.62 2397.1 1154.64 2391.69 1143.57 2386.66 1141.32 2384.05 1140.05 2381.02 1142.79 2381.83 1145.53 2382.22 1147.07 2383.76 1147.82 2384.67 1149.02 2385.81 1150.56 2383.69 1147.62 2385 1149.45 2386.46 1150.88 2387.74 1157.48 2387.7 1158.03 2388.26 1163.65 2386.24 1166.16 2383.59 1169.32 2380.49 1172.82 2380.4 1172.52 2377.72 1174.48 2377.59 1174.58 2377.52 1174.64 2377.43 1174.71 2374.91 1176.28 2372.47 1179.34 2374.75 1182.15 2375.7 1183.52 2377.52 1183.78 2378.8 1184.76 2379.91 1185.38 2382.19 1187.96 2382.88 1189.01 2385.78 1193.67 2387.15 1196.45 2387.12 1198.67 2387.12 1198.7 2387.12 1198.7 2387.12 1198.73 2386.14 1201.77 2386.73 1200 2385.49 1202.84 2383.33 1206.89 2381.18 1209.08 2379.61 1210.22 2375.21 1213.45 2370.09 1214.5 2367.12 1215.02 2363.76 1215.31 2361.15 1215.02 2360.43 1214.85 2360.33 1214.85 2360.23 1214.89 2360.13 1214.89 2360.1 1214.89 2360.13 1214.89 2360.04 1214.85 2356.68 1214.76 2354.85 1219.2 2357.3 1221.48 2357.69 1221.87 2358.11 1222.1 2358.57 1222.26 2358.47 1222.23 2358.37 1222.2 2358.31 1222.17 2358.44 1222.23 2358.6 1222.26 2358.73 1222.33 2358.83 1222.36 2358.89 1222.39 2358.99 1222.43 2358.99 1222.43 2358.99 1222.43 2358.99 1222.43 2360 1222.82 2361.11 1222.95 2362.19 1222.98 2363.4 1223.28 2365 1223.7 2365.42 1223.96 2378.54 1228.14 2393.15 1241.42 2392.34 1254.54 2391.95 1258.52 2389.86 1261.49 2386.76 1263.58 2379.22 1255.85 2369.27 1250.2 2360.23 1248.9 2353.51 1247.62 2341.8 1250.85 2344.93 1261.27 2350.05 1273.11 2371.91 1277.16 2385.78 1271.74 2389.04 1275.95 2391.46 1280.56 2392.4 1285.09 2395.01 1294.72 2385.78 1306.11 2375.37 1309.51 2361.64 1313.58 2346.43 1310.06 2333.48 1302.19 2328.35 1298.87 2323.75 1294.3 2320.62 1289.04 2320.16 1288.23 2320.03 1286.01 2318.73 1285.29 2316.93 1284.11 2314.45 1286.04 2315.11 1288.09 2315.99 1292.11 2318.66 1295.21 2321.34 1298.18 2328.88 1307.09 2339.74 1312.41 2350.87 1315.28 2368.91 1320.28 2390.58 1314.56 2397.69 1295.76 2400.4 1286.56 2397.3 1276.93 2391.29 1268.84 2393.12 1267.47 2394.62 1265.87 2395.7 1264.04ZM2356.61 1263.19C2349.2 1258.75 2350.93 1256.76 2354.46 1255.1 2362.35 1253.4 2372.79 1258.49 2380.79 1266.13 2373.51 1268.02 2364.11 1266.98 2356.61 1263.19Z" fill="#043F6D" fill-rule="evenodd"/><path d="M2359 1222C2359.36 1222.33 2359.72 1222.67 2360 1223 2360 1223 2360 1223 2360 1222.84 2359.79 1222.67 2359.57 1222.5 2359.43 1222.33 2359.29 1222.17 2359.14 1222 2359 1222Z" fill="#3D3722" fill-rule="evenodd"/><path d="M2359 1222 2359 1222C2360.59 1223.59 2360.06 1223.06 2359 1222Z" fill="#3D3722" fill-rule="evenodd"/><path d="M2282.76 1153.31C2282.27 1151.91 2280.27 1151.55 2279.27 1152.63 2278.33 1153.96 2278.78 1153.67 2278.49 1154.94 2274.87 1195.32 2272.48 1237.62 2267.37 1276.25 2265.82 1287.8 2264.72 1298.02 2262.49 1310.09 2262.23 1313.08 2260.58 1316.21 2261.1 1319.17 2261.78 1320.44 2263.85 1320.21 2264.2 1318.78 2270.54 1287.93 2273.9 1256.5 2276.87 1225.16 2279.07 1205.9 2280.82 1186.6 2282.08 1167.27 2282.21 1162.68 2283.53 1156.43 2282.76 1153.31Z" fill="#043F6D" fill-rule="evenodd"/><path d="M2482.96 896.015C2419.8 895.494 2356.88 909.296 2298.61 933.615 2273.87 943.935 2249.32 956.631 2231.58 976.75 2212.21 998.757 2202.54 1028.97 2205.54 1058.14 2208.53 1087.27 2224.52 1114.49 2247.6 1132.49 2277.02 1155.48 2317.36 1171 2352.61 1168.79 2358.9 1168.4 2365.37 1167.13 2370.39 1163.32 2375.4 1159.51 2376.67 1149.09 2374.46 1143.2 2382.4 1143.2 2394.74 1138.55 2398.74 1130.77 2403.04 1122.5 2399.72 1112.7 2393.63 1107.75 2405.9 1104.46 2420.1 1091.64 2413.36 1077.6 2407.3 1065.04 2398.51 1065.14 2379.86 1064.03 2372.57 1063.61 2360.04 1061.88 2354.01 1058.56 2340.76 1051.27 2345.09 1037.89 2346.79 1037.66 2348.06 1037.5 2403.49 1021.77 2475.5 1018.09 2477.42 1018 2479.54 1017.87 2480.97 1016.56 2482.11 1015.56 2482.6 1014.06 2483.02 1012.59 2489.86 989.87 2490.41 965.844 2490.9 942.112 2491.13 931.857 2491.29 921.277 2487.52 911.738 2485.5 906.497 2482.18 901.093 2482.96 896.015Z" fill="#CA9B75" fill-rule="evenodd"/><path d="M2350.88 1027.41C2379.82 1009.57 2416.4 1007 2451.22 997.719 2453.73 962.553 2465.29 928.658 2479 896 2417.11 896 2355.52 909.676 2298.41 933.575 2273.72 943.896 2249.23 956.595 2231.52 976.717 2212.2 998.728 2202.55 1028.94 2205.54 1058.12 2208.52 1087.26 2224.47 1114.48 2247.51 1132.49 2276.87 1155.47 2317.12 1171 2352.31 1168.79 2358.58 1168.4 2365.04 1167.13 2370.04 1163.32 2375.05 1159.51 2376.31 1149.09 2374.1 1143.2 2382.03 1143.2 2394.34 1138.54 2398.34 1130.76 2402.63 1122.49 2399.31 1112.69 2393.24 1107.74 2405.49 1104.45 2419.65 1091.62 2412.92 1077.59 2406.88 1065.02 2398.11 1065.12 2379.5 1064.01 2372.22 1063.59 2359.71 1061.86 2353.7 1058.54 2340.48 1051.25 2344.8 1037.87 2346.49 1037.64 2346.69 1037.6 2348.02 1037.25 2350.39 1036.66 2347.43 1033.37 2346.43 1030.41 2350.88 1027.41Z" fill="#CA9B75" fill-rule="evenodd"/><path d="M2487.54 911.826C2485.46 906.54 2482.13 901.123 2482.92 896 2481.77 896 2480.67 896.033 2479.53 896.033 2465.78 928.762 2454.18 962.731 2451.67 997.974 2416.78 1007.27 2380.09 1009.85 2351.03 1027.73 2346.57 1030.7 2347.58 1033.71 2350.54 1037 2362.57 1033.97 2401.21 1024.6 2451.28 1020.1 2459.07 1019.41 2467.15 1018.79 2475.45 1018.4 2477.38 1018.3 2479.49 1018.17 2480.93 1016.87 2482.07 1015.86 2482.56 1014.35 2482.98 1012.89 2485.81 1003.46 2487.54 993.797 2488.65 984.007 2490.25 970.204 2490.57 956.173 2490.86 942.239 2491.16 931.992 2491.32 921.387 2487.54 911.826Z" fill="#782D53" fill-rule="evenodd" fill-opacity="0.0980392"/><path d="M2694.35 942.709C2691.39 923.58 2676.26 908.51 2659.86 898.214 2609.47 866.548 2545.73 868.205 2486.34 872.005 2484.29 872.135 2482.05 872.33 2480.52 873.759 2479.13 875.058 2478.67 877.104 2478.35 878.988 2469.91 925.236 2466.59 972.459 2468.54 1019.42 2468.77 1024.62 2469.26 1030.37 2473.02 1033.97 2475.39 1036.24 2478.64 1037.28 2481.82 1038.16 2515.79 1047.61 2551.51 1048.94 2586.74 1047.51 2601.97 1046.9 2617.46 1045.7 2631.61 1040.08 2649.89 1032.83 2664.67 1018.64 2676.29 1002.79 2689.67 984.443 2697.37 962.423 2694.35 942.709Z" fill="#F8E961" fill-rule="evenodd"/><path d="M2469 1022.98C2469.39 1027.1 2470.33 1031.19 2473.25 1033.98 2475.62 1036.25 2478.87 1037.26 2482.05 1038.17 2516 1047.61 2551.71 1048.94 2586.93 1047.52 2593.72 1047.26 2600.53 1046.83 2607.29 1045.99 2617.48 1022.69 2626.67 998.993 2644 979 2598.2 1022 2529.8 1029.47 2469 1022.98Z" fill="#782D53" fill-rule="evenodd" fill-opacity="0.0980392"/><path d="M2694.35 942.714C2691.39 923.583 2676.26 908.513 2659.86 898.216 2609.47 866.548 2545.73 868.205 2486.34 872.005 2484.29 872.135 2482.05 872.33 2480.52 873.759 2479.13 875.058 2478.67 877.105 2478.35 878.989 2469.91 925.24 2466.59 972.466 2468.54 1019.43 2468.57 1020.6 2468.67 1021.8 2468.77 1022.97 2529.59 1029.47 2597.97 1022 2643.82 978.962 2646.71 975.649 2649.8 972.401 2653.17 969.316 2650.19 972.725 2647.04 975.909 2643.82 978.962 2626.45 998.97 2617.29 1022.68 2607.1 1046 2615.51 1044.96 2623.75 1043.24 2631.61 1040.12 2649.89 1032.88 2664.67 1018.68 2676.29 1002.84 2689.67 984.451 2697.37 962.43 2694.35 942.714Z" fill="#FBF09D" fill-rule="evenodd"/><path d="M2654 969C2650.39 972.199 2647.09 975.566 2644 979.001 2647.44 975.869 2650.81 972.536 2654 969Z" fill="#782D53" fill-rule="evenodd" fill-opacity="0.0980392"/><path d="M2743.83 383.833C2663.51 399.804 2594.23 458.613 2560.44 533.231 2526.66 607.848 2527.41 696.192 2557.42 772.402 2561.13 781.803 2565.29 791.203 2566.39 801.254 2567.63 812.736 2564.8 824.251 2564.31 835.765 2562.52 878.083 2593.64 916.661 2631.91 934.713 2670.21 952.765 2714.24 953.839 2756.44 950.521 2784.15 948.342 2811.88 944.341 2838.22 935.494 2906.95 912.334 2962.94 854.404 2986.55 778.485 3011.68 775.46 3032.46 755.944 3043.52 733.175 3051.87 716 3055.68 696.029 3050.93 677.488 3046.18 658.98 3031.97 642.424 3013.41 637.805 2994.87 633.186 2972.99 642.717 2960.67 656.053 2976.86 592.234 2969.02 521.325 2933.23 466.062 2897.43 410.798 2831.29 366.431 2743.83 383.833Z" fill="#CA9B75" fill-rule="evenodd"/><path d="M2882.97 370.418C2868.01 352.87 2739.04 291.455 2616.65 370.06 2567.27 401.775 2529.64 451.233 2512.89 507.449 2507.81 524.476 2503.55 543.519 2489.21 554.047 2476.42 563.405 2458.8 563.405 2445.33 571.757 2431.05 580.595 2423.57 600.222 2430.79 615.397 2437.98 630.573 2460.62 636.616 2473.04 625.308 2463.51 638.144 2469.98 658.063 2483.32 666.869 2496.69 675.675 2514.22 675.383 2529.67 671.223 2551.17 665.407 2570.69 652.539 2584.51 635.089 2580.93 644.707 2588.19 655.756 2597.72 659.59 2607.25 663.457 2618.08 661.865 2628.03 659.33 2676.07 647.015 2716.11 614.098 2750.66 578.515 2779.64 548.653 2806.86 514.663 2820.23 471.315 2822.38 552.26 2877.44 629.987 2952.64 676 2971.83 630.832 3022.25 630.052 3040.24 655.756 3054.22 612.505 3081.71 370.418 2882.97 370.418Z" fill="#452319" fill-rule="evenodd"/><path d="M2883.12 349.001C2885.3 339.311 2886.59 329.426 2886.94 319.509 2887.1 314.859 2887.04 310.079 2885.46 305.69 2883.89 301.3 2880.49 297.365 2876.02 296.26 2874.64 295.935 2873.16 295.87 2871.81 296.325 2870.63 296.715 2869.56 297.463 2868.63 298.341 2865.74 301.072 2864.11 304.877 2863.01 308.713 2862.27 311.412 2861.76 314.241 2862.11 317.038 2862.53 320.257 2864.11 323.183 2865.65 326.012 2870.05 334.173 2874.64 342.595 2883.12 349.001Z" fill="#452319" fill-rule="evenodd"/><path d="M2891 354.001C2892.98 338.541 2900.42 322.73 2914.36 315.288 2918.55 313.052 2924.08 311.775 2927.82 314.713 2930.77 317.045 2931.45 321.261 2930.74 324.934 2929.31 332.281 2923.4 337.998 2917.06 342.119 2909.03 347.325 2899.87 350.807 2891 354.001Z" fill="#452319" fill-rule="evenodd"/><path d="M2897 791.5C2897 828.227 2866.33 858 2828.5 858 2790.67 858 2760 828.227 2760 791.5 2760 754.773 2790.67 725 2828.5 725 2866.33 725 2897 754.773 2897 791.5Z" fill="#CF6C67" fill-rule="evenodd" fill-opacity="0.329412"/><path d="M2681.46 755.571C2674.75 746.809 2662.21 746.095 2651.3 747.653 2641.79 749.016 2632.27 753.689 2627.24 761.9 2622.17 770.143 2622.92 782.183 2630.4 788.284 2636.4 793.184 2644.88 793.314 2652.59 792.795 2659.82 792.341 2667.17 789.842 2673.69 786.661 2680.21 783.481 2692.75 770.273 2681.46 755.571Z" fill="#D57966" fill-rule="evenodd" fill-opacity="0.266667"/><path d="M2659.07 789.813C2657.61 789.227 2657.45 789.781 2655.47 789.879 2652.73 790.075 2649.29 790.368 2645.18 790.009 2641 789.422 2634.08 786.816 2630.71 783.035 2628.47 780.623 2627.04 777.723 2627.1 774.822 2627.26 769.771 2627.77 766.317 2629.81 762.536 2631.5 759.473 2633.96 756.899 2636.76 754.585 2637.88 753.607 2639.25 752.922 2640.36 751.977 2641.19 751 2639.89 749.468 2638.83 750.185 2633.16 752.987 2627.65 756.801 2624.23 762.341 2619.23 770.879 2618.94 783.687 2631.28 790.53 2640.81 795.517 2650.02 796.332 2659.27 792.975 2660.35 792.291 2660.19 790.466 2659.07 789.813Z" fill="#5A3B20" fill-rule="evenodd"/><path d="M2674 785.682C2674.07 782.198 2675.82 778.996 2678.11 776.498 2678.87 775.653 2679.73 774.879 2680.72 774.422 2681.71 773.964 2682.91 773.823 2683.9 774.281 2684.2 774.422 2684.5 774.597 2684.66 774.879 2684.83 775.125 2684.93 775.442 2684.96 775.759 2685.19 777.483 2684.43 779.172 2683.44 780.544 2682.05 782.514 2680.19 784.134 2678.11 785.189 2676.71 785.928 2674.93 786.315 2674 785.682Z" fill="#5A3B20" fill-rule="evenodd"/><path d="M2717 637.001C2710.24 636.937 2703.1 639.387 2699.69 644.544 2696.27 649.703 2698.14 657.568 2704.37 659.954 2706.31 660.695 2708.44 660.856 2710.54 661.05 2717.82 661.63 2725.07 662.211 2732.35 662.823 2736.94 663.177 2742.32 663.306 2745.24 660.147 2747.3 657.955 2747.4 654.667 2746.32 651.959 2744.42 647.188 2741.1 644.093 2738.28 642.513 2733.53 639.935 2723.76 637.065 2717 637.001Z" fill="#452319" fill-rule="evenodd"/><path d="M2569.34 661.29C2575.75 659.206 2583.31 659.466 2588.11 663.406 2592.92 667.346 2593.58 675.485 2588.34 679.652 2586.74 680.954 2584.74 681.736 2582.82 682.517 2576.08 685.251 2569.34 687.987 2562.6 690.721 2558.35 692.447 2553.28 694.14 2549.55 691.991 2546.94 690.461 2545.83 687.367 2546.02 684.437 2546.38 679.261 2548.57 675.289 2550.8 672.945 2554.53 669.038 2562.93 663.374 2569.34 661.29Z" fill="#452319" fill-rule="evenodd"/><path d="M3023.7 674.711C3010.16 666.35 2996.01 669.906 2985.48 679.197 2981.63 682.593 2978.08 686.533 2975.73 691.082 2973.71 695.375 2972.67 700.052 2971.92 704.698 2971.56 706.748 2970.71 713.764 2971.1 718.826 2971.07 721.709 2975.73 721.741 2975.7 718.826 2974.56 692.684 2992.43 674.359 3010.29 678.652 3013.23 679.293 3016.2 679.869 3019.07 680.799 3020.86 680.991 3021.45 682.785 3024.94 682.016 3028.78 680.126 3026.6 676.313 3023.7 674.711Z" fill="#9C704C" fill-rule="evenodd"/><path d="M2364 965C2364.74 968.303 2365.37 971.637 2366 975.001 2365.3 971.667 2364.59 968.333 2364 965Z" fill="#432158" fill-rule="evenodd" fill-opacity="0.109804"/><path d="M2335 950.755C2337.82 989.808 2340.7 1014.65 2347.94 1054.35 2353.31 1059.11 2364.02 1063.38 2378 1064 2373.91 1023.64 2366.8 987.134 2362.74 946.746 2362.67 946.127 2358.22 942.313 2354.19 942.085 2344.66 941.465 2342.04 944.236 2335 950.755Z" fill="#FBF09D" fill-rule="evenodd"/><path d="M2335.17 951.987C2344.24 949.455 2353.67 948.286 2363 948.546 2362.74 945.722 2362.18 942.898 2360.84 940.463 2359.5 937.997 2357.3 935.952 2354.58 935.27 2352.78 934.816 2350.85 935.01 2348.99 935.302 2346.4 935.724 2343.81 936.341 2341.32 937.185 2339.2 937.899 2337 938.873 2335.63 940.658 2333.66 943.223 2333.89 946.761 2334.22 949.91 2334.32 950.818 2334.55 952.149 2335.17 951.987Z" fill="#FE94BD" fill-rule="evenodd"/><path d="M2334.21 951.948C2333.74 953.46 2334.11 956.15 2334.85 957.561 2334.91 957.696 2334.98 957.831 2335.11 957.898 2335.38 958.066 2335.72 957.999 2336.02 957.898 2339.67 956.822 2343.49 956.452 2347.28 956.116 2352.84 955.612 2358.4 955.108 2364 954.603 2363.87 952.788 2363.77 948.284 2363.5 948.183 2355.05 945.561 2342.65 947.511 2334.21 951.948Z" fill="#043F6D" fill-rule="evenodd"/><path d="M2355.5 1055.5C2351.63 1023.74 2347.82 995.223 2343.5 963.5" stroke="#043F6D" stroke-width="3.4375" stroke-linecap="round" stroke-linejoin="round" stroke-miterlimit="10" fill="none" fill-rule="evenodd"/><path d="M2367.5 1056.5C2363.21 1025.55 2359.24 994.543 2355.5 963.5" stroke="#043F6D" stroke-width="3.4375" stroke-linecap="round" stroke-linejoin="round" stroke-miterlimit="10" fill="none" fill-rule="evenodd"/><path d="M2672.99 861.741C2703.06 837.963 2745.17 832.895 2782.01 844.102 2783.83 841.276 2785.56 838.385 2787.08 835.396 2801.46 807.46 2790.76 765.36 2742.7 774.196 2727.77 776.925 2715.65 787.612 2704.82 797.844 2693.02 808.987 2681.31 822.208 2664.99 824.839 2646.88 827.763 2625.45 817.205 2611.3 828.445 2606.23 832.473 2603.47 838.677 2602.46 844.914 2599.4 863.885 2611.95 883.051 2629.42 892.504 2634.78 895.427 2640.5 897.539 2646.42 899.001 2650.65 884.253 2660.83 871.356 2672.99 861.741Z" fill="#452319" fill-rule="evenodd"/><path d="M2672.67 862.25C2660.48 871.838 2650.27 884.698 2646 899.404 2659.37 902.675 2673.81 902.61 2687.57 900.569 2710.1 897.265 2731.79 889.006 2750.54 876.665 2763.28 868.243 2773.95 857.23 2782 844.662 2745.06 833.519 2702.8 838.54 2672.67 862.25Z" fill="#FE94BD" fill-rule="evenodd"/><path d="M2690.08 360C2626.11 367.95 2568.47 414.292 2546.91 475.107 2542.92 486.335 2541.66 501.815 2552.23 507.299 2568.4 515.672 2584.42 488.347 2602.25 492.014 2597.42 502.886 2588.7 511.486 2582.7 521.772 2576.7 532.027 2573.88 545.884 2581.11 555.328 2589.19 565.874 2605.27 565.453 2617.94 561.428 2633.31 556.561 2647.48 547.864 2658.76 536.311 2659.22 547.539 2648.55 557.632 2650.98 568.568 2652.67 576.227 2660.61 581.256 2668.42 581.905 2676.24 582.555 2683.89 579.764 2691.05 576.584 2731.26 558.735 2765.27 527.322 2786.27 488.672 2791.72 478.644 2794.31 462.742 2783.62 458.816 2776.91 456.35 2769.87 461.055 2764.26 465.501 2746.17 479.845 2728.11 494.156 2710.02 508.499 2716.96 497.239 2723.9 485.978 2730.87 474.75 2733.2 470.986 2735.6 466.831 2735.11 462.45 2734.4 456.025 2727.49 451.774 2721.01 451.709 2714.56 451.644 2708.53 454.694 2702.79 457.648 2685.67 466.474 2668.52 475.301 2651.4 484.161 2667 460.568 2682.59 437.008 2698.19 413.416 2703.73 405.011 2709.47 396.087 2709.96 386.026 2710.41 375.869 2703.31 364.738 2690.08 360Z" fill="#FDF9D6" fill-rule="evenodd" fill-opacity="0.129412"/><path d="M2438.5 1232.86C2440.81 1240.96 2448.28 1246.74 2456.3 1249.25 2464.32 1251.78 2472.89 1251.59 2481.3 1251.39 2471.4 1256.27 2475.36 1272.85 2485.27 1277.7 2495.17 1282.54 2506.86 1279.88 2517.77 1278.28 2580.38 1269.21 2640.95 1299.42 2700.54 1320.62 2750.78 1338.54 2802.99 1350.37 2855.44 1360.16 2877.43 1364.26 2899.67 1368 2921.98 1366.76 2944.29 1365.52 2966.93 1358.92 2983.94 1344.42 3000.96 1329.92 3011.38 1306.67 3007 1284.72 2896.55 1301.14 2784 1268.79 2683.26 1220.5 2641.44 1200.44 2600.36 1177.39 2555.12 1167.08 2526.02 1160.45 2494.78 1159.73 2466.04 1168.41 2454.29 1171.96 2437.79 1177.06 2431.78 1188.9 2425.87 1200.54 2435.48 1214.16 2448.64 1213.09 2440.52 1215.33 2436.3 1224.99 2438.5 1232.86Z" fill="#552C74" fill-rule="evenodd" fill-opacity="0.0980392"/><path d="M2840.29 487.272C2847.97 517.986 2862.68 546.907 2882.92 571.23 2890.37 580.164 2898.9 588.739 2909.74 592.978 2911.79 593.792 2914.1 594.412 2916.18 593.662 2918.95 592.652 2920.28 589.554 2921.07 586.685 2923.99 575.991 2923.41 564.383 2919.37 554.047 2929.27 567.448 2942.77 578.175 2958.07 584.794 2960.61 585.902 2963.38 586.88 2966.08 586.228 2969.36 585.413 2971.54 582.348 2973.17 579.349 2980.01 566.633 2981.67 551.211 2977.7 537.321 2984.53 544.037 2992.28 549.776 3000.67 554.373 3004.09 556.232 3007.9 557.96 3011.74 557.373 3021.18 555.873 3022.9 543.027 3021.63 533.539 3017.11 500.51 3004.48 468.622 2985.15 441.495 2980.01 434.289 2970.83 426.692 2963.44 431.517 2957.68 435.267 2958.01 443.68 2958.98 450.494 2961.55 468.1 2964.09 485.675 2966.66 503.281 2959.8 489.848 2947.36 479.382 2932.98 474.915 2930.18 474.034 2927.12 473.415 2924.39 474.491 2918.27 476.904 2918.2 485.446 2919.44 491.902 2922.43 507.455 2926.92 522.714 2932.78 537.418 2909.51 528.42 2897.96 502.629 2879.24 486.131 2873.45 481.012 2866.62 476.643 2858.97 475.665 2851.22 474.622 2837.88 477.686 2840.29 487.272Z" fill="#FDF9D6" fill-rule="evenodd" fill-opacity="0.129412"/><path d="M2871.81 1191.34C2841.51 1176.15 2814.86 1167.81 2787.75 1159.43 2728.62 1141.18 2667.02 1133.69 2605.16 1132.32 2548.28 1131.08 2488.66 1137.99 2441.43 1169.76 2436.2 1173.28 2430.96 1177.32 2428.36 1183.06 2425.76 1188.79 2426.8 1196.65 2432.2 1199.91 2437.01 1202.81 2443.15 1201.21 2452.84 1200.88 2444.26 1206.72 2434.64 1214.8 2435.97 1225.1 2437.2 1234.68 2447.83 1240.38 2457.45 1240.77 2467.08 1241.16 2476.5 1237.94 2486.13 1237.35 2479.85 1240.32 2475.92 1247.55 2476.63 1254.46 2477.35 1261.4 2482.48 1267.59 2489.12 1269.74 2495 1271.66 2501.37 1270.59 2507.45 1269.48 2527.05 1265.93 2546.65 1262.38 2568.24 1260.29 2695.37 1277.99 2879.19 1366.33 2943.75 1353.79 2957.82 1351.05 2971.96 1347.24 2984.02 1339.45 2998.42 1330.16 3008.85 1315.82 3017.18 1300.83 3037.49 1264.3 3047.11 1221.84 3044.61 1179.57 3042.08 1169.24 3048.32 1134.83 3038.76 1130.23 3033.66 1127.76 3016.82 1122.97 3011.16 1123 2974.89 1123.33 2937.89 1130.36 2902.07 1124.6 2899.7 1124.21 2897.13 1123.85 2894.95 1124.89 2893.33 1125.67 2892.16 1127.17 2891.09 1128.64 2883.41 1139.42 2881.82 1184.3 2871.81 1191.34Z" fill="#CA9B75" fill-rule="evenodd"/><path d="M3044.61 1179.69C3042.08 1169.34 3048.3 1134.85 3038.78 1130.25 3033.69 1127.77 3016.91 1122.97 3011.27 1123 2975.12 1123.33 2938.22 1130.38 2902.56 1124.6 2900.19 1124.21 2897.63 1123.85 2895.46 1124.89 2893.84 1125.68 2892.68 1127.18 2891.61 1128.65 2885.71 1137.07 2883.44 1166.17 2878 1181.97 2927.99 1209.11 2984.16 1231.25 3041.01 1235 3044.48 1216.91 3045.71 1198.3 3044.61 1179.69Z" fill="#782D53" fill-rule="evenodd" fill-opacity="0.0980392"/><path d="M2511.77 1169.09C2493.17 1174.07 2474.83 1180.88 2458.66 1191.4 2447.5 1198.14 2438.74 1207.02 2435.55 1219.83 2434.16 1223.64 2435.81 1229 2436.11 1227.84 2439.36 1215.74 2447.56 1204.15 2458 1197.95 2474.23 1186.98 2489.31 1181.17 2507.45 1174.29 2509.43 1173.45 2512.59 1172.48 2513.32 1172 2514.86 1171 2513.55 1168.48 2511.77 1169.09Z" fill="#9C704C" fill-rule="evenodd"/><path d="M2541.25 1206.1C2515.26 1213.8 2487.13 1221.63 2476.62 1248.91 2475.45 1251.67 2476.16 1255.73 2476.91 1257 2476.91 1257 2477.79 1253.56 2478.54 1252.19 2486.18 1233.97 2498.71 1228.32 2517.25 1220.33 2522.97 1217.79 2536.24 1212.79 2542.42 1210.36 2545.19 1209.64 2544.02 1205.29 2541.25 1206.1Z" fill="#9C704C" fill-rule="evenodd"/><path d="M2898.9 1202.07C2893.75 1198.93 2888.51 1195.92 2883.26 1192.97 2846.69 1172.92 2806.7 1160.54 2766.19 1151.59 2736.65 1144.88 2707.15 1137.61 2676.99 1134.23 2650.35 1130.96 2622.67 1130.83 2595.9 1131.09 2589.36 1131.35 2578.67 1131.51 2572.19 1132.14 2570.79 1132.69 2577.37 1133.05 2579.03 1133.02 2607.33 1132.33 2634.3 1135.81 2662.53 1137.8 2688.29 1140.46 2718.02 1146.42 2745.28 1153.23 2769.9 1159.19 2794.59 1165.09 2818.75 1172.79 2838.03 1179.64 2853.53 1186.22 2871.02 1194.15 2879.19 1197.98 2887.14 1202.24 2895.25 1206.27 2897.63 1207.12 2899.68 1209.41 2901.7 1206.76 2902.8 1204.1 2900.65 1203.19 2898.9 1202.07Z" fill="#9C704C" fill-rule="evenodd"/><path d="M2905.56 899.047C2960.22 897.422 3021.44 937.93 3049.23 985.039 3077.01 1032.15 3079.9 1082.93 3080 1144.18 3080.03 1169.25 3077.69 1186.28 3075.65 1191.65 3072.33 1200.26 3063.2 1204.46 3054 1205.27 3008.02 1209.3 2901.85 1197.04 2840.86 1159.62 2827.11 1151.17 2852.42 1065.93 2880.4 995.93 2904.22 936.24 2905.56 899.047 2905.56 899.047Z" fill="#FBF09D" fill-rule="evenodd"/><path d="M2349.2 1054.04C2365.24 1070.83 2393.39 1052.84 2410.67 1068.24 2423.66 1081.24 2414.95 1102.15 2399.99 1108.96 2379.82 1117.65 2350.69 1112.27 2338.23 1093.4 2337.77 1092.68 2338.03 1091.71 2338.75 1091.29 2339.43 1090.87 2340.27 1091.06 2340.76 1091.68 2344.82 1097 2350.92 1101.11 2357.38 1103.51 2374.66 1109.96 2402.49 1109.96 2409.53 1089.44 2410.64 1085.97 2411.19 1082.34 2410.15 1079.19 2408.1 1073.55 2404.47 1069.76 2398.26 1068.53 2381.35 1064.31 2357.9 1072.29 2346.38 1055.23 2345.47 1053.22 2348.32 1052.02 2349.2 1054.04L2349.2 1054.04Z" fill="#9C704C" fill-rule="evenodd"/><path d="M2323.2 1041.79C2321.2 1030.89 2334.7 1024.67 2343.85 1027.81 2344.7 1028.07 2345.19 1028.98 2344.93 1029.82 2344.77 1030.37 2344.34 1030.73 2343.85 1030.92 2340.31 1032.21 2336.34 1032.96 2333.16 1034.77 2330.08 1036.36 2327.95 1038.75 2326.35 1041.83 2325.79 1043.35 2323.59 1043.45 2323.2 1041.79L2323.2 1041.79Z" fill="#9C704C" fill-rule="evenodd"/><path d="M2320.59 1126.92C2335.4 1140.03 2398.41 1151.71 2397.12 1120.05 2396.86 1115.93 2395.22 1111.5 2392.35 1108.86 2390.77 1107.64 2392.48 1105.16 2394.12 1106.28 2402.8 1112.69 2404.45 1125.96 2398.38 1134.84 2382.73 1155.91 2334.43 1146.69 2318.46 1129.23 2317.08 1127.71 2319.11 1125.53 2320.59 1126.92L2320.59 1126.92Z" fill="#9C704C" fill-rule="evenodd"/><path d="M2878.67 992.255C2873.8 1011.73 2850.63 1104.33 2846.7 1121.68 2844.65 1131.47 2841.86 1141.38 2841.34 1150.94 2841.4 1150.87 2840.98 1149.96 2841.05 1150.12 2852.09 1159.06 2867.1 1164.48 2880.42 1169.99 2921.36 1186.04 2964.64 1195.43 3008.11 1201.46 3027.47 1203.23 3072.21 1212.49 3076.3 1185.55 3076.43 1184.5 3078.12 1184.7 3077.99 1185.74 3076.17 1221.59 3004.21 1207.79 2980.72 1205.41 2936.5 1199.31 2892.48 1187.83 2852.16 1168.16 2845.63 1164.61 2839.45 1162 2833.93 1156.22 2833.12 1155.34 2832.37 1153.94 2832.14 1152.57 2831.79 1150.09 2832.18 1148.33 2832.4 1146.18 2835.49 1128.11 2840.36 1111.28 2845.14 1093.79 2854.72 1059.45 2865.35 1025.46 2876.66 991.7 2876.85 991.146 2877.4 990.885 2877.96 991.048 2878.51 991.211 2878.8 991.733 2878.67 992.255L2878.67 992.255Z" fill="#DDCB47" fill-rule="evenodd"/><path d="M2652.78 971.254C2629.16 1024.23 2602.56 1075.61 2575.38 1126.8 2574.09 1129.27 2570.13 1127.58 2571.17 1124.88 2581.38 1097.58 2593.79 1071.29 2606.68 1045.32 2619.74 1019.39 2633.41 993.81 2648.67 969.077 2650.13 966.704 2653.95 968.622 2652.78 971.254L2652.78 971.254Z" fill="#DDCB47" fill-rule="evenodd"/><path d="M2682.97 717.496C2678.08 703.271 2683.57 688.507 2695.23 684.502 2706.88 680.497 2720.28 688.774 2725.17 702.998 2730.06 717.222 2724.57 731.986 2712.92 735.991 2701.26 739.996 2687.86 731.719 2682.97 717.496Z" fill-rule="evenodd"/><path d="M2610.09 725.45C2605.76 712.839 2593.88 705.502 2583.54 709.054 2573.21 712.606 2568.35 725.696 2572.68 738.308 2577.01 750.918 2588.89 758.255 2599.23 754.703 2609.57 751.151 2614.43 738.061 2610.09 725.45Z" fill-rule="evenodd"/><path d="M206.636 56.4345C192.29 26.3858 167.18 9.66376 141.672 4.67949 135.494 2.98188 129.263 1.93484 123.031 1.50139 112.239-0.484917 101.182-0.196219 90.3372 0.634493 73.3403 1.53758 56.4231 5.72652 41.1497 16.2733 34.1237 20.968 27.4153 26.8192 21.5019 33.826 19.3008 35.6675 17.0737 37.8348 14.8466 40.3993 2.59602 55.2789-5.54444 84.6417 4.55809 110.538 18.6379 139.973 37.2522 146.004 58.1998 153.156 87.8711 161.029 115.607 158.212 136.66 152.469 158.536 147.557 180.067 137.77 199.132 122.203 215.917 106.673 218.595 78.3217 206.636 56.4345Z" fill="#FBF09D" fill-rule="evenodd" transform="matrix(-1 0 0 1 2060 689)"/><path d="M51.8857 1.17457C44.7559-0.624943 36.6491-0.444671 29.2559 2.32591 10.3488 4.19753-6.52495 19.1665 2.50593 46.0102 2.76987 46.5502 3.06026 47.0534 3.3242 47.5574 3.48291 48.0613 3.58872 48.6366 3.7733 49.1405 8.15678 60.4752 17.531 65.8369 26.4037 67.852 41.4817 71.2347 58.8568 67.6004 69.0763 50.8319 83.0715 28.0183 70.212 6.60837 51.8857 1.17457Z" fill="#FBF09D" fill-rule="evenodd" transform="matrix(-1 0 0 1 2135 659)"/><path d="M94.1934 17.1177C75.9589-1.75194 50.5579-3.19199 28.9792 4.00983 20.1406 7.50249 11.143 13.6243 6.55084 24.9674 5.83472 26.9487 5.33013 28.9291 4.9053 30.9096-0.535908 40.7045-2.20804 52.8037 3.81694 66.3077 17.4067 90.6505 45.4884 93.7832 66.1915 89.2466 80.0465 86.7257 93.8218 76.6783 101.758 60.8699 108.632 46.2137 103.855 27.1283 94.1934 17.1177Z" fill="#FBF09D" fill-rule="evenodd" transform="matrix(-1 0 0 1 2984 149)"/><path d="M66.2722 2.74558C52.8694 9.45402 62.1557 67.7054 62.1557 67.7054 62.1557 67.7054 9.07807 60.8512 2.66007 73.6518-3.7417 86.4688 1.75233 103.855 15.4798 106.593 29.207 109.332 63.5335 106.593 63.5335 106.593 63.5335 106.593 57.5856 153.26 66.2722 164.245 74.9592 175.231 96.466 170.646 101.053 160.583 105.623 150.521 101.053 106.593 101.053 106.593 101.053 106.593 147.728 110.709 155.054 105.67 162.363 100.631 164.211 68.1589 155.054 66.7818 145.897 65.4043 101.506 68.6124 101.506 68.6124 101.506 68.6124 107.908 15.5462 101.053 7.29869 94.197-0.916395 75.4293-1.84001 66.2722 2.74558Z" stroke="#FE94BD" stroke-width="6.875" stroke-linejoin="round" stroke-miterlimit="10" fill="#FE94BD" fill-rule="evenodd" transform="matrix(-0.980291 0.197559 0.197559 0.980291 1773.26 1181.84)"/><path d="M2329.23 440.725C2307.31 434.497 2285.25 428.717 2263.34 422.489 2308.11 392.54 2356.38 356.164 2365.07 303.064 2370.23 271.518 2350.28 233.975 2314.76 235.47 2284.72 236.723 2259.91 265.41 2244.54 288.489 2231.59 307.956 2262.57 326.645 2275.44 307.305 2284.95 293.015 2294.15 279.715 2311.47 275.214 2332.67 269.713 2337.47 302.434 2320.96 324.176 2300.62 350.999 2255.03 389.842 2214.69 411.525 2204.04 417.256 2200.29 433.145 2209.74 442.374 2220.58 452.981 2286.64 466.219 2319.3 475.499 2341.73 481.858 2351.67 447.085 2329.23 440.725Z" stroke="#FE94BD" stroke-width="6.875" stroke-linejoin="round" stroke-miterlimit="10" fill="#FE94BD" fill-rule="evenodd"/></g></svg>