<svg width="336" height="246" xmlns="http://www.w3.org/2000/svg" xmlns:xlink="http://www.w3.org/1999/xlink" overflow="hidden"><defs><clipPath id="clip0"><rect x="630" y="1186" width="336" height="246"/></clipPath></defs><g clip-path="url(#clip0)" transform="translate(-630 -1186)"><path d="M324.437 87.5092C301.914 40.9146 262.488 14.9849 222.438 7.25617 212.738 4.6238 202.954 3.00023 193.17 2.32811 176.226-0.751928 158.866-0.304263 141.838 0.983866 115.151 2.38422 88.5894 8.87973 64.6089 25.2339 53.5774 32.5137 43.0445 41.5867 33.7599 52.4517 30.304 55.3072 26.8072 58.6678 23.3105 62.6445 4.07599 85.7173-8.70528 131.248 7.15662 171.403 29.2632 217.047 58.4893 226.399 91.379 237.488 137.966 249.696 181.513 245.328 214.569 236.423 248.916 228.807 282.722 213.63 312.656 189.492 339.009 165.41 343.214 121.448 324.437 87.5092Z" fill="#FBF4D9" fill-rule="evenodd" transform="matrix(-1 0 0 1 966 1186)"/><path d="M834.466 1280.86C850.431 1262.57 851.726 1236.88 831.009 1219.18 801.644 1194.07 758.987 1214.04 748.57 1251.53 744.02 1267.9 764.951 1274.14 769.833 1262.75 778.219 1243.16 787.176 1229.74 806.836 1231.91 817.93 1233.14 823.276 1247.07 821.482 1254.23 818.429 1266.42 810.411 1268.68 789.884 1276.86 776.259 1282.3 782.638 1304.53 799.934 1299.21 803.616 1298.08 818.275 1293.09 825.83 1304.85 832.197 1314.75 830.855 1325.5 823.513 1334.86 809.9 1352.23 774.751 1351.17 763.691 1331.81 755.281 1317.07 732.402 1330.31 740.836 1345.07 763.905 1385.45 833.587 1382.89 852.973 1341.57 862.678 1320.86 854.196 1289.43 834.466 1280.86Z" fill="#BFBFFF" fill-rule="evenodd"/></g></svg>