<svg width="336" height="246" xmlns="http://www.w3.org/2000/svg" xmlns:xlink="http://www.w3.org/1999/xlink" overflow="hidden"><defs><clipPath id="clip0"><rect x="630" y="869" width="336" height="246"/></clipPath></defs><g clip-path="url(#clip0)" transform="translate(-630 -869)"><path d="M324.437 87.5092C301.914 40.9146 262.488 14.9849 222.438 7.25617 212.738 4.6238 202.954 3.00023 193.17 2.32811 176.226-0.751928 158.866-0.304263 141.838 0.983866 115.151 2.38422 88.5894 8.87973 64.6089 25.2339 53.5774 32.5137 43.0445 41.5867 33.7599 52.4517 30.304 55.3072 26.8072 58.6678 23.3105 62.6445 4.07599 85.7173-8.70528 131.248 7.15662 171.403 29.2632 217.047 58.4893 226.399 91.379 237.488 137.966 249.696 181.513 245.328 214.569 236.423 248.916 228.807 282.722 213.63 312.656 189.492 339.009 165.41 343.214 121.448 324.437 87.5092Z" fill="#FBF4D9" fill-rule="evenodd" transform="matrix(-1 0 0 1 966 869)"/><path d="M837.163 1048.43C820.439 1048.45 803.704 1048.81 786.981 1048.84 812.542 1019.14 839.271 984.292 834.697 945.677 831.982 922.735 810.327 900.614 785.563 908.703 764.611 915.537 752.89 940.39 746.697 959.474 741.479 975.57 767.112 982.404 772.294 966.414 776.129 954.598 779.941 943.531 791.257 936.966 805.109 928.936 815.091 950.717 807.825 969.099 798.88 991.771 774.533 1027.81 750.437 1050.88 744.076 1056.97 744.636 1068.75 753.164 1073.29 762.956 1078.51 812.244 1074.59 837.163 1074.56 854.28 1074.52 854.28 1048.39 837.163 1048.43Z" fill="#FE94BD" fill-rule="evenodd"/></g></svg>